<?xml version="1.0" encoding="UTF-8" standalone="no"?>
<svg xmlns="http://www.w3.org/2000/svg" version="1.2" baseProfile="tiny" viewBox="0.00 0.00 448.00 575.00" width="448.00" height="575.00">
<path fill="#ffffff" d="
  M 0.00 0.00
  L 448.00 0.00
  L 448.00 575.00
  L 0.00 575.00
  L 0.00 0.00
  Z"
/>
<g stroke-width="5.00" fill="none" stroke-linecap="butt">
<path stroke="#84b8e0" vector-effect="non-scaling-stroke" d="
  M 221.12 7.13
  A 324.51 33.78 57.1 0 0 220.57 14.99
  A 265.68 4.95 83.3 0 1 224.92 52.31
  L 228.71 82.34
  L 231.83 106.75
  A 132.15 23.54 -28.9 0 0 233.43 109.67
  L 250.01 123.30"
/>
<path stroke="#89c0e8" vector-effect="non-scaling-stroke" d="
  M 250.01 123.30
  A 91.12 3.26 -86.7 0 1 249.50 124.15
  L 228.39 122.40
  L 220.48 121.87
  A 97.04 0.08 4.4 0 0 206.94 120.82"
/>
<path stroke="#84b8e0" vector-effect="non-scaling-stroke" d="
  M 206.94 120.82
  A 246.36 37.82 -89.3 0 0 207.20 86.00
  A 90.45 37.80 -77.1 0 0 206.76 74.89
  A 97.40 3.53 -73.3 0 0 206.13 74.70
  L 170.55 120.21"
/>
<path stroke="#6892b1" vector-effect="non-scaling-stroke" d="
  M 170.55 120.21
  L 169.98 120.64"
/>
<path stroke="#89c0e8" vector-effect="non-scaling-stroke" d="
  M 169.98 120.64
  A 8.93 3.22 -64.6 0 1 169.60 120.38
  A 4.99 3.17 -54.3 0 0 169.25 120.10
  L 138.88 101.75
  A 0.53 0.53 0.0 0 1 139.04 100.78
  A 108.00 3.81 19.0 0 0 138.70 99.95"
/>
<path stroke="#84b8e0" vector-effect="non-scaling-stroke" d="
  M 245.14 57.72
  A 113.64 4.98 -88.3 0 0 245.78 59.71
  A 308.55 17.13 51.3 0 1 273.08 93.75
  L 274.63 95.98
  A 35.29 19.19 -46.4 0 0 276.44 98.01"
/>
<path stroke="#6d98b9" vector-effect="non-scaling-stroke" d="
  M 276.44 98.01
  L 276.46 99.83
  L 276.97 104.37
  L 277.52 105.62
  A 104.80 11.62 61.5 0 0 284.60 118.64
  L 286.84 123.95
  L 287.09 125.25
  A 181.29 42.15 80.7 0 0 291.17 150.56"
/>
<path stroke="#5c819c" vector-effect="non-scaling-stroke" d="
  M 291.17 150.56
  L 297.32 191.64
  A 0.96 0.96 0.0 0 1 296.39 192.74
  L 271.40 192.01
  A 56.39 42.76 -5.4 0 0 263.46 191.90
  A 59.53 6.26 -58.7 0 1 262.71 191.43
  L 261.41 186.08
  L 261.11 184.26
  A 228.04 28.44 78.5 0 1 255.42 152.95"
/>
<path stroke="#6d98b9" vector-effect="non-scaling-stroke" d="
  M 255.42 152.95
  A 177.91 14.49 80.9 0 0 251.12 128.75
  A 245.35 16.58 -73.4 0 0 249.49 126.02"
/>
<path stroke="#7dafd4" vector-effect="non-scaling-stroke" d="
  M 249.49 126.02
  L 250.01 123.30"
/>
<path stroke="#72a0c1" vector-effect="non-scaling-stroke" d="
  M 249.49 126.02
  L 236.95 151.61"
/>
<path stroke="#6188a5" vector-effect="non-scaling-stroke" d="
  M 236.95 151.61
  L 217.06 192.01
  A 2.24 2.23 -77.1 0 1 215.07 193.26
  L 195.32 193.40"
/>
<path stroke="#52728a" vector-effect="non-scaling-stroke" d="
  M 195.32 193.40
  A 70.59 1.30 53.2 0 1 194.85 193.17"
/>
<path stroke="#7dafd4" vector-effect="non-scaling-stroke" d="
  M 206.94 120.82
  A 44.95 32.50 -45.3 0 1 206.31 126.26
  A 443.70 18.20 -79.7 0 0 195.05 187.99
  A 95.95 30.55 -33.5 0 0 194.85 193.17"
/>
<path stroke="#4d6b82" vector-effect="non-scaling-stroke" d="
  M 194.85 193.17
  L 98.43 192.89"
/>
<path stroke="#7dafd4" vector-effect="non-scaling-stroke" d="
  M 98.43 192.89
  A 181.20 81.27 -85.0 0 1 110.01 192.06
  L 112.47 191.53
  L 113.09 190.77
  A 178.52 28.09 -60.7 0 1 125.42 168.74
  A 115.11 15.29 30.2 0 0 125.50 166.29"
/>
<path stroke="#7dafd4" vector-effect="non-scaling-stroke" d="
  M 131.15 136.22
  A 172.10 30.88 55.4 0 1 136.12 135.77
  A 1.81 1.76 38.4 0 0 137.01 135.68
  L 141.86 134.77
  L 147.39 134.91
  A 165.41 42.97 -70.6 0 0 153.99 134.34
  L 154.13 134.30
  L 156.97 134.70
  L 158.70 135.14
  A 25.81 23.08 54.9 0 0 162.07 135.07
  L 162.15 135.06
  L 163.08 134.85
  L 164.02 134.66
  L 165.27 135.01
  A 79.05 7.83 79.8 0 0 166.37 134.87
  A 51.87 3.68 -90.0 0 1 166.89 134.87
  L 167.26 135.24
  A 0.33 0.33 0.0 0 0 167.82 135.01
  A 91.51 4.89 64.9 0 1 168.32 134.27"
/>
<path stroke="#5c819c" vector-effect="non-scaling-stroke" d="
  M 168.32 134.27
  L 161.39 191.82
  A 29.03 2.01 -41.0 0 0 161.58 192.04
  L 161.95 192.04
  A 2.23 0.25 63.5 0 0 161.98 192.02
  A 431.81 66.87 -77.5 0 0 175.10 132.38
  L 175.42 130.19
  L 175.88 127.32
  L 175.89 127.30
  L 177.26 124.74
  L 180.04 122.46
  A 373.92 11.66 -14.2 0 0 179.50 120.31
  L 174.76 119.99
  A 24.68 6.07 75.8 0 0 173.92 120.17
  A 177.63 23.81 -88.3 0 1 170.55 120.21"
/>
<path stroke="#6188a5" vector-effect="non-scaling-stroke" d="
  M 169.98 120.64
  L 168.32 134.27"
/>
<path stroke="#314453" vector-effect="non-scaling-stroke" d="
  M 383.03 192.31
  L 380.46 192.59"
/>
<path stroke="#2b3c48" vector-effect="non-scaling-stroke" d="
  M 380.46 192.59
  L 347.16 193.18
  A 0.79 0.78 81.8 0 0 346.42 194.18
  L 349.80 205.81"
/>
<path stroke="#384e5f" vector-effect="non-scaling-stroke" d="
  M 349.80 205.81
  A 271.73 14.64 89.5 0 1 347.75 207.89
  A 114.25 36.91 84.3 0 1 342.54 208.25
  A 40.95 6.49 -55.9 0 1 341.77 207.75
  L 334.53 196.66"
/>
<path stroke="#314453" vector-effect="non-scaling-stroke" d="
  M 334.53 196.66
  L 333.21 193.88
  L 330.96 192.99
  L 327.20 193.17
  L 324.75 193.38
  A 114.91 45.59 -2.8 0 1 308.62 193.32
  A 0.72 0.72 0.0 0 0 307.90 194.21
  A 35.91 17.80 -64.4 0 1 308.48 197.75
  L 309.47 208.75
  L 312.05 235.81
  A 84.79 61.06 62.2 0 1 312.58 246.90
  A 337.91 6.64 79.4 0 1 311.30 247.14
  A 102.50 9.77 19.8 0 0 309.64 245.09
  A 60.12 6.25 27.5 0 1 307.84 243.20
  A 431.41 6.21 52.4 0 1 270.58 194.89
  L 270.10 194.37
  L 267.90 193.30
  L 264.40 193.08
  L 263.00 193.07
  A 120.37 10.29 -56.9 0 1 261.96 192.00
  A 52.50 4.43 -51.2 0 0 261.47 191.61
  L 220.38 192.86
  A 1.30 1.30 0.0 0 0 219.25 193.58
  L 202.64 226.80
  A 0.89 0.87 0.7 0 1 202.21 227.21
  A 36.78 12.96 43.4 0 0 200.65 228.25
  A 64.03 5.60 85.5 0 1 199.86 228.31
  A 96.15 25.40 -67.3 0 0 196.49 227.06
  A 1.85 1.84 2.7 0 1 194.82 225.23
  A 214.10 29.00 -87.9 0 0 194.52 196.58
  L 194.52 196.29
  L 195.06 194.14
  L 195.32 193.40"
/>
<path stroke="#79a9cd" vector-effect="non-scaling-stroke" d="
  M 280.51 51.18
  A 11.97 2.12 89.8 0 0 280.21 51.14
  A 28.25 2.51 42.2 0 0 279.98 51.41
  L 276.44 98.01"
/>
<path stroke="#51728a" vector-effect="non-scaling-stroke" d="
  M 255.42 152.95
  L 236.95 151.61"
/>
<path stroke="#51728a" vector-effect="non-scaling-stroke" d="
  M 376.70 173.61
  L 355.92 172.95
  A 49.61 6.18 -59.8 0 1 355.17 172.50
  A 87.46 77.64 -27.6 0 1 350.50 162.56
  L 350.28 161.60
  L 350.51 159.82
  L 350.64 159.29
  A 153.89 2.67 -76.9 0 1 355.43 138.44
  A 80.16 4.74 -40.4 0 0 354.93 137.86
  L 351.50 138.11
  A 14.39 1.37 56.4 0 0 351.36 138.25
  A 1.19 0.12 -86.3 0 1 351.34 138.34
  A 0.40 0.31 -0.8 0 1 351.07 138.55
  A 161.90 13.83 -15.4 0 0 329.00 144.64
  L 325.83 145.77
  L 322.16 147.06
  L 319.81 147.34
  L 316.39 147.93
  A 32.98 4.68 -86.5 0 1 315.73 147.88
  A 33.99 4.23 -61.4 0 0 315.05 147.88
  A 0.42 0.42 0.0 0 0 314.83 148.48
  A 112.30 8.53 60.7 0 0 322.60 162.33
  L 325.25 168.75
  L 326.16 171.39
  A 1.37 1.37 0.0 0 1 324.96 173.23
  L 316.54 173.74
  A 130.28 10.75 -52.8 0 1 315.33 172.82
  A 291.94 14.28 82.1 0 0 310.83 153.10
  A 133.37 0.58 87.4 0 1 310.67 151.37
  A 135.69 13.47 -41.5 0 0 309.49 149.87
  L 308.42 149.54
  L 305.74 148.97
  L 305.12 149.00
  A 133.67 94.04 89.7 0 1 291.82 148.92
  A 59.82 3.95 47.4 0 0 291.38 149.32
  A 25.47 8.03 36.6 0 1 291.17 150.56"
/>
<path stroke="#283844" vector-effect="non-scaling-stroke" d="
  M 334.53 196.66
  A 49.42 17.62 -9.1 0 0 334.60 199.17
  A 38.37 6.58 9.0 0 1 334.46 200.09
  A 154.63 15.36 -0.3 0 0 334.73 202.26
  A 13.40 3.30 -78.7 0 0 335.14 202.57
  A 37.44 5.76 -41.8 0 1 335.68 203.18
  L 336.47 205.83
  A 0.74 0.66 41.7 0 1 336.50 206.09
  L 336.30 217.84
  L 336.37 221.41
  A 573.39 1.00 90.0 0 0 336.42 302.50
  A 8.23 3.43 -15.0 0 0 336.50 302.98
  A 13.12 5.31 -8.5 0 1 336.63 303.72
  L 336.63 328.24
  L 336.44 329.86
  L 336.23 332.18
  L 336.36 333.26
  A 278.48 12.73 -70.0 0 1 336.08 339.25
  A 66.28 14.08 -18.9 0 0 336.41 341.24
  A 21.53 6.50 -13.3 0 1 336.64 342.13
  A 171.57 8.51 -83.2 0 0 337.00 348.85
  A 399.89 8.10 -84.9 0 0 338.58 348.99
  A 283.09 32.20 -73.2 0 0 349.67 310.73
  A 186.75 70.97 -22.3 0 0 351.24 299.50
  A 159.61 13.00 73.1 0 1 351.60 294.49"
/>
<path stroke="#1b262e" vector-effect="non-scaling-stroke" d="
  M 351.60 294.49
  A 318.91 7.99 -82.8 0 0 353.28 292.43
  A 71.92 3.81 76.1 0 1 353.91 292.28
  A 31.23 6.51 -26.5 0 1 354.33 293.10
  A 60.00 3.11 -66.6 0 0 354.82 293.31
  L 360.45 289.28
  A 1.35 1.35 0.0 0 0 360.91 288.71
  A 35.37 2.47 -84.5 0 1 361.32 288.06
  L 361.92 287.60
  L 367.73 282.46
  A 332.98 16.31 -60.7 0 1 373.26 277.25
  A 101.55 7.73 -16.1 0 0 375.92 275.37
  A 9.98 6.76 53.5 0 1 376.68 274.79
  L 377.02 274.59
  L 378.96 273.17
  L 379.34 272.70
  A 43.56 31.15 -52.2 0 1 383.20 267.90
  L 384.03 266.72
  L 385.19 265.18
  L 389.12 259.42
  L 390.04 257.78
  A 27.59 6.64 49.6 0 1 390.72 257.13
  L 393.11 253.97
  L 394.72 248.28
  A 41.87 31.23 30.2 0 1 395.65 243.86
  L 396.11 241.12
  L 395.86 237.58
  L 393.15 228.61
  L 391.49 223.71
  A 462.63 3.74 77.0 0 0 388.80 214.42
  A 105.50 1.27 71.0 0 0 383.95 200.31
  A 152.43 25.15 47.6 0 1 382.23 193.38
  A 53.13 5.88 -39.7 0 0 381.70 192.74
  A 23.40 8.30 -61.7 0 0 380.46 192.59"
/>
<path stroke="#1b262e" vector-effect="non-scaling-stroke" d="
  M 301.54 482.53
  A 134.06 27.57 -16.7 0 1 301.43 478.50
  A 137.85 33.16 -74.1 0 1 306.77 459.75
  A 73.96 44.61 10.1 0 0 307.88 453.54
  A 27.79 4.52 -21.1 0 0 307.66 452.94
  A 2.83 2.49 -36.9 0 0 307.40 452.70
  A 37.12 6.29 -30.6 0 1 306.92 451.95
  L 306.53 441.82
  L 306.57 438.56
  A 331.62 39.91 88.9 0 0 305.67 391.67
  L 306.01 382.66
  L 306.39 374.01
  L 306.34 364.22
  L 306.11 344.10
  L 306.25 342.94
  L 306.39 341.26
  A 129.57 1.63 77.6 0 1 306.17 339.20
  A 89.91 51.24 79.8 0 0 306.34 326.94
  A 67.06 8.93 -30.4 0 0 305.72 325.84
  L 305.45 325.67
  A 42.15 2.20 65.1 0 0 305.11 325.83
  L 295.60 410.02
  A 4.49 4.34 -29.4 0 1 295.19 411.40
  L 286.67 428.75
  L 268.24 467.01
  A 539.97 22.59 -65.9 0 0 236.90 536.13"
/>
<path stroke="#314453" vector-effect="non-scaling-stroke" d="
  M 211.30 502.41
  A 63.04 10.09 25.9 0 1 211.41 500.88
  A 516.92 24.66 -61.7 0 0 246.13 436.55"
/>
<path stroke="#2b3c49" vector-effect="non-scaling-stroke" d="
  M 246.13 436.55
  A 300.05 37.54 -62.3 0 0 265.91 399.01
  A 124.02 22.11 52.2 0 0 266.71 395.00
  L 266.78 379.58
  L 267.54 319.98"
/>
<path stroke="#283844" vector-effect="non-scaling-stroke" d="
  M 267.54 319.98
  L 268.20 269.36
  A 2.67 2.66 4.3 0 0 265.89 266.69
  L 260.39 265.91
  A 0.62 0.61 6.4 0 1 259.86 265.25
  A 2.71 0.89 -79.5 0 0 259.87 264.90
  A 0.44 0.44 0.0 0 0 259.49 264.48
  L 256.83 264.14
  A 26.77 5.31 -63.5 0 1 256.17 263.78
  A 70.05 8.77 -70.0 0 0 255.01 263.34
  A 19.26 6.47 68.8 0 0 254.16 263.68
  A 33.76 6.95 70.9 0 1 253.21 263.94
  L 251.63 263.89
  L 249.31 263.77
  A 26.86 7.20 -68.3 0 1 248.37 263.38
  A 31.00 6.69 -20.0 0 1 247.78 262.59
  A 0.61 0.61 0.0 0 0 247.24 262.19
  L 236.27 261.83
  A 0.42 0.42 0.0 0 1 235.87 261.40
  A 165.95 14.06 -42.4 0 0 234.74 259.74
  A 131.25 7.90 0.7 0 1 231.09 258.60
  A 21.32 6.50 -79.3 0 0 230.19 258.41
  L 224.69 258.52
  A 33.46 4.43 63.5 0 0 224.14 258.82
  A 21.58 3.10 56.2 0 1 223.76 259.04
  L 219.31 259.05
  L 215.38 259.00
  A 18.67 2.21 -0.9 0 1 212.88 259.14
  A 0.96 0.95 13.3 0 0 212.08 259.63
  A 286.73 21.58 71.8 0 1 209.18 260.58
  A 36.96 6.66 -86.9 0 0 208.24 260.53
  A 158.05 40.15 54.4 0 0 203.54 263.72
  A 26.33 7.74 52.6 0 1 202.66 264.37
  A 49.83 12.43 57.7 0 0 201.29 265.49
  A 16.08 2.21 60.2 0 1 201.01 265.63
  L 200.65 265.63
  A 30.94 5.69 69.2 0 0 199.90 265.92
  L 198.29 267.41
  L 193.59 271.14
  A 284.35 32.56 -51.6 0 1 185.24 274.39
  A 65.55 13.38 -7.3 0 1 176.06 275.64
  A 34.12 6.36 -74.7 0 1 175.19 275.41
  A 55.96 10.51 -67.7 0 0 173.74 275.03
  A 55.19 5.06 -5.3 0 0 165.97 275.76
  L 165.02 275.78
  L 162.50 276.01
  A 16.00 6.62 87.5 0 1 161.57 276.15
  A 27.23 12.93 -82.1 0 1 159.77 275.82
  A 42.32 5.86 81.9 0 0 158.95 275.94
  L 157.18 276.34
  L 154.65 275.81
  L 154.03 275.63
  A 0.83 0.77 39.4 0 0 153.55 275.66
  A 75.46 6.38 17.5 0 0 152.87 276.39
  A 73.31 7.04 33.9 0 1 152.32 277.22
  A 36.67 7.94 71.7 0 1 151.15 277.25"
/>
<path stroke="#314453" vector-effect="non-scaling-stroke" d="
  M 151.15 277.25
  L 151.30 276.32"
/>
<path stroke="#283844" vector-effect="non-scaling-stroke" d="
  M 151.30 276.32
  L 153.99 251.20
  L 154.56 244.00
  A 36.45 30.82 32.6 0 0 154.57 239.45
  A 75.55 5.86 -47.7 0 0 153.96 238.89
  A 82.28 9.25 -67.3 0 1 152.86 238.13
  A 1.73 1.72 -11.2 0 0 151.44 237.19
  A 143.05 42.37 -74.3 0 1 145.71 235.43
  A 88.48 18.86 69.7 0 0 142.46 234.20
  A 25.23 1.13 8.1 0 1 138.93 233.69
  L 138.88 233.68
  L 138.00 233.25
  L 137.10 232.80
  L 137.06 232.79
  A 53.22 8.72 9.6 0 0 129.67 231.45
  A 20.97 6.49 -64.3 0 1 128.82 231.10
  A 75.32 11.75 -78.5 0 0 127.19 230.78
  A 44.04 6.12 -76.9 0 1 126.35 230.57
  L 122.35 229.32
  L 114.56 228.86
  L 114.52 228.86
  A 7.23 1.87 -54.7 0 1 114.24 228.80
  A 2.87 1.57 47.4 0 1 113.92 228.62
  A 25.57 6.01 -69.3 0 0 113.11 228.36
  L 111.96 228.30
  L 104.34 228.24
  L 99.85 229.22
  A 28.37 6.23 79.8 0 1 98.98 229.36
  L 95.93 229.44
  L 93.29 229.55
  A 86.88 49.36 86.9 0 0 86.31 229.74
  L 84.08 229.71
  L 82.07 229.63
  L 71.02 230.09
  L 65.75 230.20
  A 18.21 12.06 79.5 0 0 64.06 230.44
  A 18.95 6.79 -89.7 0 1 63.10 230.47
  A 193.99 19.30 -17.1 0 0 55.50 230.05
  A 772.20 3.75 4.0 0 1 41.66 229.61
  A 39.26 6.29 -62.8 0 1 40.86 229.22
  A 92.82 9.57 -63.0 0 0 39.50 228.91
  A 15.95 0.60 -43.5 0 1 39.47 228.79
  A 10.01 1.52 37.6 0 0 39.51 228.55
  A 15.58 1.10 -50.2 0 0 39.39 228.45
  A 21.44 11.48 38.7 0 0 37.45 228.77
  A 118.75 10.92 31.9 0 0 36.44 229.96
  A 15.77 1.31 34.7 0 1 36.33 230.11
  A 33.84 0.65 -24.6 0 1 36.22 230.02
  A 16.96 2.25 28.1 0 0 36.37 229.74
  L 36.37 228.71
  A 0.24 0.24 0.0 0 0 35.96 228.54
  L 35.71 228.79
  A 60.52 2.04 -65.3 0 1 35.36 228.63
  A 59.05 3.49 -51.4 0 0 34.96 228.23"
/>
<path stroke="#314453" vector-effect="non-scaling-stroke" d="
  M 36.75 216.39
  A 280.91 41.35 -50.7 0 0 45.96 214.20
  A 312.48 3.52 -21.9 0 1 86.96 197.71
  A 91.42 70.12 -76.9 0 0 96.69 192.89"
/>
<path stroke="#52728a" vector-effect="non-scaling-stroke" d="
  M 98.43 192.89
  A 60.71 12.13 -80.1 0 1 96.69 192.89"
/>
<path stroke="#6188a5" vector-effect="non-scaling-stroke" d="
  M 96.69 192.89
  L 73.11 192.75"
/>
<path stroke="#222f3a" vector-effect="non-scaling-stroke" d="
  M 351.60 294.49
  A 259.82 5.03 -86.7 0 1 353.82 258.52
  A 1412.83 10.06 -84.5 0 0 355.18 229.75
  L 353.93 223.31
  L 352.94 219.22
  A 109.91 66.74 53.3 0 0 349.80 205.81"
/>
<path stroke="#324655" vector-effect="non-scaling-stroke" d="
  M 267.54 319.98
  A 3.64 2.05 -39.7 0 1 267.43 319.70
  A 37.71 3.68 -52.5 0 0 267.02 319.38
  A 2.84 1.74 25.9 0 0 266.67 319.38
  A 21.35 2.53 52.6 0 0 266.38 319.59
  L 266.02 320.48
  A 79.44 4.77 75.3 0 1 265.28 320.67
  A 154.64 20.19 -80.7 0 0 262.47 320.16
  A 139.75 10.88 44.0 0 0 261.84 321.69
  A 0.20 0.20 0.0 0 1 261.56 321.91
  A 85.67 7.21 -27.8 0 1 261.12 320.99
  A 73.39 5.30 -31.1 0 0 260.73 320.35
  A 74.15 8.53 -42.2 0 1 259.86 319.51
  A 19.06 1.66 -47.1 0 0 259.67 319.37
  A 5.80 0.80 18.5 0 1 259.34 319.37
  A 56.44 4.20 46.4 0 0 258.91 319.78
  L 258.86 321.51
  A 75.51 4.92 51.0 0 1 258.27 321.97
  L 252.15 320.72
  A 58.09 1.79 -6.5 0 1 252.12 320.38
  A 30.04 6.40 74.0 0 1 253.04 320.31
  A 134.42 6.02 39.0 0 0 253.74 319.49
  A 0.56 0.54 78.8 0 0 253.28 319.17
  L 248.49 318.81
  A 18.31 3.10 -60.6 0 1 248.10 318.61
  A 1.81 1.41 53.1 0 0 247.93 318.42
  A 16.37 3.26 -52.0 0 0 247.51 318.21
  A 69.89 35.02 -87.4 0 0 242.56 318.03
  A 76.88 6.75 45.5 0 0 241.88 318.70
  A 8.92 2.15 26.8 0 1 241.76 318.98
  A 44.49 5.53 70.4 0 1 241.03 319.26
  A 52.35 40.05 7.7 0 1 233.79 317.77
  L 230.92 317.33
  L 228.03 316.89
  L 226.61 316.60
  L 222.25 316.37
  L 220.68 316.37
  A 0.31 0.31 0.0 0 1 220.38 316.00
  A 26.11 3.14 46.7 0 1 220.66 315.65
  A 46.39 2.48 13.0 0 0 220.75 315.24
  A 32.49 3.74 -72.0 0 0 220.23 315.13
  A 13.01 1.31 32.4 0 0 220.12 315.28
  L 220.12 315.54
  A 0.58 0.58 0.0 0 1 219.68 316.10
  A 90.38 12.51 -79.2 0 1 217.95 315.73
  A 9.47 1.70 -18.0 0 1 217.82 315.52
  A 18.44 3.90 -13.4 0 1 217.88 314.94
  A 0.28 0.27 -3.8 0 0 217.49 314.60
  L 216.86 314.95
  A 24.02 3.69 85.2 0 1 216.34 314.99
  L 207.89 312.14
  A 31.16 6.14 -50.1 0 1 207.21 311.60
  A 80.85 7.65 -74.3 0 0 206.21 311.16
  A 43.18 7.20 -83.4 0 1 205.20 311.03
  A 71.42 22.04 -49.2 0 1 202.93 308.89
  A 49.61 7.32 -59.8 0 0 202.04 308.36
  A 38.81 8.26 71.8 0 0 200.90 308.63
  A 50.91 5.38 -87.8 0 1 200.14 308.60
  A 88.92 8.40 86.8 0 0 198.95 308.59
  A 73.92 7.79 86.9 0 1 197.85 308.65
  L 193.00 305.78
  A 1.43 1.37 -30.6 0 0 192.19 305.59
  A 159.91 79.23 -86.5 0 1 181.01 304.85
  A 22.33 6.14 79.0 0 0 180.13 304.87
  A 24.96 5.72 87.5 0 1 179.32 304.86
  L 174.83 304.89
  L 172.92 305.13
  A 63.44 10.89 -2.4 0 0 163.96 305.44
  A 61.25 6.46 52.9 0 0 163.23 305.99
  L 162.83 307.15
  A 0.74 0.74 0.0 0 1 162.16 307.64
  L 149.12 308.18
  A 51.27 4.34 -52.9 0 1 148.63 307.81
  A 38.99 9.44 -33.5 0 1 148.66 306.21"
/>
<path stroke="#1b262e" vector-effect="non-scaling-stroke" d="
  M 293.65 505.71
  A 218.09 113.96 -85.0 0 0 277.53 505.11
  L 277.17 505.16
  L 276.05 505.48
  L 274.93 505.79
  L 273.96 505.86
  A 358.02 25.00 48.9 0 0 271.54 508.51
  L 271.40 517.84
  L 271.46 537.29
  L 271.54 539.04
  L 271.97 561.91
  L 271.98 564.70
  L 272.17 566.75
  L 272.38 570.41
  L 271.56 573.03
  L 271.48 573.16"
/>
<path stroke="#3b5263" vector-effect="non-scaling-stroke" d="
  M 246.13 436.55
  A 555.88 28.82 -54.1 0 0 241.45 434.70
  A 1.03 1.02 57.7 0 1 240.21 434.42
  A 102.14 7.34 -85.0 0 0 239.18 434.28
  A 29.47 6.82 65.9 0 1 238.28 434.63
  L 236.92 434.33
  L 235.57 434.07
  L 234.70 434.47
  A 0.36 0.36 0.0 0 1 234.30 434.50
  L 234.01 434.35
  A 26.62 6.66 -77.0 0 0 233.09 434.15
  A 26.30 23.94 -0.0 0 1 229.37 434.15
  A 181.38 1.22 5.7 0 0 225.64 433.95
  A 117.95 85.93 3.7 0 1 208.99 432.93
  L 205.79 432.79
  L 202.03 432.56
  A 64.15 55.13 -81.6 0 0 194.25 431.98
  A 40.21 6.62 -66.6 0 1 193.39 431.61
  A 58.57 5.92 -66.8 0 0 192.54 431.47
  A 50.91 5.24 34.6 0 0 192.12 432.08
  L 192.12 432.75
  A 69.97 3.48 61.3 0 1 191.59 433.04
  A 76.23 9.09 -37.2 0 1 191.02 431.86
  L 191.97 418.22
  L 192.58 410.70
  A 215.10 31.98 -85.8 0 1 194.78 380.36
  A 33.16 6.38 -15.7 0 0 194.54 379.49
  A 17.07 7.40 -19.0 0 1 194.06 378.55
  A 238.13 20.89 -58.7 0 0 191.60 376.91
  A 33.44 6.13 -72.6 0 1 190.76 376.69
  A 94.63 23.97 -71.7 0 0 187.58 375.51
  A 18.63 6.69 -74.5 0 1 186.67 375.25
  A 77.48 25.53 -78.4 0 0 183.17 374.35
  A 168.97 3.42 -21.9 0 0 180.41 374.94
  L 178.24 375.13
  L 175.81 375.44
  L 175.45 375.60
  A 42.65 8.00 -62.6 0 1 173.95 376.08
  A 70.37 62.85 -1.8 0 1 164.00 376.27
  A 46.89 6.68 66.1 0 0 163.13 376.64
  A 103.10 16.26 61.6 0 1 161.04 377.61
  A 25.90 6.26 -74.4 0 1 160.19 377.36
  A 243.47 25.00 -88.6 0 0 156.65 377.50
  A 23.03 5.79 72.5 0 1 155.88 377.78
  L 150.21 378.20
  A 45.16 3.40 43.2 0 0 149.88 378.55
  L 149.88 378.88
  A 88.00 0.42 4.5 0 1 149.00 378.87
  A 19.67 2.75 -59.5 0 1 148.66 378.68
  A 64.80 3.23 87.7 0 0 148.10 378.70
  L 147.87 379.41
  L 148.14 380.99
  L 148.42 382.62
  L 148.36 382.94
  A 24.02 5.38 -4.9 0 0 148.40 383.70
  L 186.42 485.15
  A 5.55 5.48 -55.3 0 1 186.77 487.14
  L 186.75 507.52
  L 186.24 544.45
  A 1.84 1.84 0.0 0 0 187.50 546.29
  A 156.10 1.38 69.3 0 1 188.29 547.83"
/>
<path stroke="#384e5f" vector-effect="non-scaling-stroke" d="
  M 151.30 276.32
  A 43.41 8.37 -50.9 0 1 150.80 275.07
  A 60.68 5.70 -43.7 0 0 150.24 274.49
  L 139.41 272.70
  A 17.98 6.78 -70.7 0 1 138.51 272.37
  L 136.57 271.65
  L 134.44 270.90
  L 134.14 270.74
  A 59.86 7.71 -89.0 0 0 133.05 270.72
  A 28.56 5.74 77.8 0 1 132.25 270.86
  A 33.18 2.87 -11.5 0 1 131.37 270.63
  A 118.09 23.45 -76.1 0 0 128.07 270.16
  A 24.02 6.66 -85.1 0 1 127.13 270.10
  L 125.86 269.55
  L 124.43 268.97
  L 124.35 268.95
  A 44.55 8.65 12.1 0 1 118.21 267.57
  A 19.54 6.45 10.3 0 0 115.52 266.99
  A 85.30 6.25 10.5 0 0 103.66 264.79
  A 53.00 4.91 39.8 0 1 101.91 264.21
  L 99.07 263.55
  L 97.92 263.36
  L 96.54 263.02
  L 91.30 262.10
  A 41.26 32.06 5.2 0 1 85.49 261.56
  L 78.42 261.25
  L 71.57 260.98
  L 66.98 260.73
  L 61.03 260.24
  A 28.00 6.26 86.0 0 0 60.15 260.34
  L 56.35 260.75
  L 49.92 259.90
  A 50.57 7.39 75.1 0 0 48.91 260.17
  A 91.18 6.22 -86.5 0 1 48.01 260.02
  A 62.66 5.47 -76.2 0 0 47.26 259.83
  A 64.23 10.15 -77.9 0 1 45.77 259.94
  A 28.25 5.31 -47.8 0 1 45.20 259.45
  A 120.31 17.48 -40.6 0 0 43.05 258.04"
/>
<path stroke="#384e5f" vector-effect="non-scaling-stroke" d="
  M 151.15 277.25
  L 148.66 306.21"
/>
<path stroke="#3b5263" vector-effect="non-scaling-stroke" d="
  M 148.66 306.21
  A 415.81 14.90 -84.8 0 0 143.31 364.77
  A 42.37 23.65 6.2 0 1 142.59 368.05
  A 0.63 0.63 0.0 0 1 141.62 368.34
  A 365.68 194.16 17.9 0 0 103.07 341.59"
/>
</g>
<path fill="#90c9f4" d="
  M 221.12 7.13
  A 324.51 33.78 57.1 0 0 220.57 14.99
  A 265.68 4.95 83.3 0 1 224.92 52.31
  L 228.71 82.34
  L 231.83 106.75
  A 132.15 23.54 -28.9 0 0 233.43 109.67
  L 250.01 123.30
  A 91.12 3.26 -86.7 0 1 249.50 124.15
  L 228.39 122.40
  L 220.48 121.87
  A 97.04 0.08 4.4 0 0 206.94 120.82
  A 246.36 37.82 -89.3 0 0 207.20 86.00
  A 90.45 37.80 -77.1 0 0 206.76 74.89
  A 97.40 3.53 -73.3 0 0 206.13 74.70
  L 170.55 120.21
  L 169.98 120.64
  A 8.93 3.22 -64.6 0 1 169.60 120.38
  A 4.99 3.17 -54.3 0 0 169.25 120.10
  L 138.88 101.75
  A 0.53 0.53 0.0 0 1 139.04 100.78
  A 108.00 3.81 19.0 0 0 138.70 99.95
  L 166.25 91.82
  A 4.54 4.51 6.8 0 0 168.86 89.78
  L 218.83 4.99
  A 0.87 0.87 0.0 0 1 220.33 4.99
  A 117.82 8.16 39.6 0 1 221.12 7.13
  Z"
/>
<path fill="#78a7cb" d="
  M 221.12 7.13
  A 387.21 15.95 64.5 0 1 243.57 55.42
  A 63.28 16.05 -71.1 0 0 245.14 57.72
  A 113.64 4.98 -88.3 0 0 245.78 59.71
  A 308.55 17.13 51.3 0 1 273.08 93.75
  L 274.63 95.98
  A 35.29 19.19 -46.4 0 0 276.44 98.01
  L 276.46 99.83
  L 276.97 104.37
  L 277.52 105.62
  A 104.80 11.62 61.5 0 0 284.60 118.64
  L 286.84 123.95
  L 287.09 125.25
  A 181.29 42.15 80.7 0 0 291.17 150.56
  L 297.32 191.64
  A 0.96 0.96 0.0 0 1 296.39 192.74
  L 271.40 192.01
  A 56.39 42.76 -5.4 0 0 263.46 191.90
  A 59.53 6.26 -58.7 0 1 262.71 191.43
  L 261.41 186.08
  L 261.11 184.26
  A 228.04 28.44 78.5 0 1 255.42 152.95
  A 177.91 14.49 80.9 0 0 251.12 128.75
  A 245.35 16.58 -73.4 0 0 249.49 126.02
  L 250.01 123.30
  L 233.43 109.67
  A 132.15 23.54 -28.9 0 1 231.83 106.75
  L 228.71 82.34
  L 224.92 52.31
  A 265.68 4.95 83.3 0 0 220.57 14.99
  A 324.51 33.78 57.1 0 1 221.12 7.13
  Z"
/>
<path fill="#90c9f4" d="
  M 280.51 51.18
  A 11.97 2.12 89.8 0 0 280.21 51.14
  A 28.25 2.51 42.2 0 0 279.98 51.41
  L 276.44 98.01
  A 35.29 19.19 -46.4 0 1 274.63 95.98
  L 273.08 93.75
  A 308.55 17.13 51.3 0 0 245.78 59.71
  A 113.64 4.98 -88.3 0 1 245.14 57.72
  A 246.54 77.47 -12.7 0 1 279.24 50.75
  A 69.44 9.29 -82.8 0 1 280.51 51.18
  Z"
/>
<path fill="#6289a6" d="
  M 280.51 51.18
  L 303.69 99.33
  A 1.92 1.90 87.4 0 0 304.72 100.28
  A 406.37 17.78 21.8 0 1 358.08 121.62
  A 150.18 20.21 -64.4 0 1 360.08 124.05
  A 370.47 96.89 70.4 0 1 376.70 173.61
  L 355.92 172.95
  A 49.61 6.18 -59.8 0 1 355.17 172.50
  A 87.46 77.64 -27.6 0 1 350.50 162.56
  L 350.28 161.60
  L 350.51 159.82
  L 350.64 159.29
  A 153.89 2.67 -76.9 0 1 355.43 138.44
  A 80.16 4.74 -40.4 0 0 354.93 137.86
  L 351.50 138.11
  A 14.39 1.37 56.4 0 0 351.36 138.25
  A 1.19 0.12 -86.3 0 1 351.34 138.34
  A 0.40 0.31 -0.8 0 1 351.07 138.55
  A 161.90 13.83 -15.4 0 0 329.00 144.64
  L 325.83 145.77
  L 322.16 147.06
  L 319.81 147.34
  L 316.39 147.93
  A 32.98 4.68 -86.5 0 1 315.73 147.88
  A 33.99 4.23 -61.4 0 0 315.05 147.88
  A 0.42 0.42 0.0 0 0 314.83 148.48
  A 112.30 8.53 60.7 0 0 322.60 162.33
  L 325.25 168.75
  L 326.16 171.39
  A 1.37 1.37 0.0 0 1 324.96 173.23
  L 316.54 173.74
  A 130.28 10.75 -52.8 0 1 315.33 172.82
  A 291.94 14.28 82.1 0 0 310.83 153.10
  A 133.37 0.58 87.4 0 1 310.67 151.37
  A 135.69 13.47 -41.5 0 0 309.49 149.87
  L 308.42 149.54
  L 305.74 148.97
  L 305.12 149.00
  A 133.67 94.04 89.7 0 1 291.82 148.92
  A 59.82 3.95 47.4 0 0 291.38 149.32
  A 25.47 8.03 36.6 0 1 291.17 150.56
  A 181.29 42.15 80.7 0 1 287.09 125.25
  L 286.84 123.95
  L 284.60 118.64
  A 104.80 11.62 61.5 0 1 277.52 105.62
  L 276.97 104.37
  L 276.46 99.83
  L 276.44 98.01
  L 279.98 51.41
  A 28.25 2.51 42.2 0 1 280.21 51.14
  A 11.97 2.12 89.8 0 1 280.51 51.18
  Z"
/>
<path fill="#78a7cb" d="
  M 206.94 120.82
  A 44.95 32.50 -45.3 0 1 206.31 126.26
  A 443.70 18.20 -79.7 0 0 195.05 187.99
  A 95.95 30.55 -33.5 0 0 194.85 193.17
  L 98.43 192.89
  A 181.20 81.27 -85.0 0 1 110.01 192.06
  L 112.47 191.53
  L 113.09 190.77
  A 178.52 28.09 -60.7 0 1 125.42 168.74
  A 115.11 15.29 30.2 0 0 125.50 166.29
  L 126.45 165.76
  L 126.89 164.71
  A 204.78 37.05 -80.4 0 1 131.15 136.22
  A 172.10 30.88 55.4 0 1 136.12 135.77
  A 1.81 1.76 38.4 0 0 137.01 135.68
  L 141.86 134.77
  L 147.39 134.91
  A 165.41 42.97 -70.6 0 0 153.99 134.34
  L 154.13 134.30
  L 156.97 134.70
  L 158.70 135.14
  A 25.81 23.08 54.9 0 0 162.07 135.07
  L 162.15 135.06
  L 163.08 134.85
  L 164.02 134.66
  L 165.27 135.01
  A 79.05 7.83 79.8 0 0 166.37 134.87
  A 51.87 3.68 -90.0 0 1 166.89 134.87
  L 167.26 135.24
  A 0.33 0.33 0.0 0 0 167.82 135.01
  A 91.51 4.89 64.9 0 1 168.32 134.27
  L 161.39 191.82
  A 29.03 2.01 -41.0 0 0 161.58 192.04
  L 161.95 192.04
  A 2.23 0.25 63.5 0 0 161.98 192.02
  A 431.81 66.87 -77.5 0 0 175.10 132.38
  L 175.42 130.19
  L 175.88 127.32
  L 175.89 127.30
  L 177.26 124.74
  L 180.04 122.46
  A 373.92 11.66 -14.2 0 0 179.50 120.31
  L 174.76 119.99
  A 24.68 6.07 75.8 0 0 173.92 120.17
  A 177.63 23.81 -88.3 0 1 170.55 120.21
  L 206.13 74.70
  A 97.40 3.53 -73.3 0 1 206.76 74.89
  A 90.45 37.80 -77.1 0 1 207.20 86.00
  A 246.36 37.82 -89.3 0 1 206.94 120.82
  Z"
/>
<path fill="#82b6dc" d="
  M 138.70 99.95
  A 108.00 3.81 19.0 0 1 139.04 100.78
  A 0.53 0.53 0.0 0 0 138.88 101.75
  L 169.25 120.10
  A 4.99 3.17 -54.3 0 1 169.60 120.38
  A 8.93 3.22 -64.6 0 0 169.98 120.64
  L 168.32 134.27
  A 91.51 4.89 64.9 0 0 167.82 135.01
  A 0.33 0.33 0.0 0 1 167.26 135.24
  L 166.89 134.87
  A 51.87 3.68 -90.0 0 0 166.37 134.87
  A 79.05 7.83 79.8 0 1 165.27 135.01
  L 164.02 134.66
  L 163.08 134.85
  L 162.15 135.06
  L 162.07 135.07
  A 25.81 23.08 54.9 0 1 158.70 135.14
  L 156.97 134.70
  L 154.13 134.30
  L 153.99 134.34
  A 165.41 42.97 -70.6 0 1 147.39 134.91
  L 141.86 134.77
  L 137.01 135.68
  A 1.81 1.76 38.4 0 1 136.12 135.77
  A 172.10 30.88 55.4 0 0 131.15 136.22
  A 247.52 18.25 -81.5 0 0 136.52 101.75
  A 222.04 19.72 40.9 0 1 138.70 99.95
  Z"
/>
<path fill="#405a6d" d="
  M 168.32 134.27
  L 169.98 120.64
  L 170.55 120.21
  A 177.63 23.81 -88.3 0 0 173.92 120.17
  A 24.68 6.07 75.8 0 1 174.76 119.99
  L 179.50 120.31
  A 373.92 11.66 -14.2 0 1 180.04 122.46
  L 177.26 124.74
  L 175.89 127.30
  L 175.88 127.32
  L 175.42 130.19
  L 175.10 132.38
  A 431.81 66.87 -77.5 0 1 161.98 192.02
  A 2.23 0.25 63.5 0 1 161.95 192.04
  L 161.58 192.04
  A 29.03 2.01 -41.0 0 1 161.39 191.82
  L 168.32 134.27
  Z"
/>
<path fill="#82b6dc" d="
  M 206.94 120.82
  A 97.04 0.08 4.4 0 1 220.48 121.87
  L 228.39 122.40
  L 249.50 124.15
  A 91.12 3.26 -86.7 0 0 250.01 123.30
  L 249.49 126.02
  L 236.95 151.61
  L 217.06 192.01
  A 2.24 2.23 -77.1 0 1 215.07 193.26
  L 195.32 193.40
  A 70.59 1.30 53.2 0 1 194.85 193.17
  A 95.95 30.55 -33.5 0 1 195.05 187.99
  A 443.70 18.20 -79.7 0 1 206.31 126.26
  A 44.95 32.50 -45.3 0 0 206.94 120.82
  Z"
/>
<path fill="#6289a6" d="
  M 249.49 126.02
  A 245.35 16.58 -73.4 0 1 251.12 128.75
  A 177.91 14.49 80.9 0 1 255.42 152.95
  L 236.95 151.61
  L 249.49 126.02
  Z"
/>
<path fill="#405a6d" d="
  M 376.70 173.61
  L 383.03 192.31
  L 380.46 192.59
  L 347.16 193.18
  A 0.79 0.78 81.8 0 0 346.42 194.18
  L 349.80 205.81
  A 271.73 14.64 89.5 0 1 347.75 207.89
  A 114.25 36.91 84.3 0 1 342.54 208.25
  A 40.95 6.49 -55.9 0 1 341.77 207.75
  L 334.53 196.66
  L 333.21 193.88
  L 330.96 192.99
  L 327.20 193.17
  L 324.75 193.38
  A 114.91 45.59 -2.8 0 1 308.62 193.32
  A 0.72 0.72 0.0 0 0 307.90 194.21
  A 35.91 17.80 -64.4 0 1 308.48 197.75
  L 309.47 208.75
  L 312.05 235.81
  A 84.79 61.06 62.2 0 1 312.58 246.90
  A 337.91 6.64 79.4 0 1 311.30 247.14
  A 102.50 9.77 19.8 0 0 309.64 245.09
  A 60.12 6.25 27.5 0 1 307.84 243.20
  A 431.41 6.21 52.4 0 1 270.58 194.89
  L 270.10 194.37
  L 267.90 193.30
  L 264.40 193.08
  L 263.00 193.07
  A 120.37 10.29 -56.9 0 1 261.96 192.00
  A 52.50 4.43 -51.2 0 0 261.47 191.61
  L 220.38 192.86
  A 1.30 1.30 0.0 0 0 219.25 193.58
  L 202.64 226.80
  A 0.89 0.87 0.7 0 1 202.21 227.21
  A 36.78 12.96 43.4 0 0 200.65 228.25
  A 64.03 5.60 85.5 0 1 199.86 228.31
  A 96.15 25.40 -67.3 0 0 196.49 227.06
  A 1.85 1.84 2.7 0 1 194.82 225.23
  A 214.10 29.00 -87.9 0 0 194.52 196.58
  L 194.52 196.29
  L 195.06 194.14
  L 195.32 193.40
  L 215.07 193.26
  A 2.24 2.23 -77.1 0 0 217.06 192.01
  L 236.95 151.61
  L 255.42 152.95
  A 228.04 28.44 78.5 0 0 261.11 184.26
  L 261.41 186.08
  L 262.71 191.43
  A 59.53 6.26 -58.7 0 0 263.46 191.90
  A 56.39 42.76 -5.4 0 1 271.40 192.01
  L 296.39 192.74
  A 0.96 0.96 0.0 0 0 297.32 191.64
  L 291.17 150.56
  A 25.47 8.03 36.6 0 0 291.38 149.32
  A 59.82 3.95 47.4 0 1 291.82 148.92
  A 133.67 94.04 89.7 0 0 305.12 149.00
  L 305.74 148.97
  L 308.42 149.54
  L 309.49 149.87
  A 135.69 13.47 -41.5 0 1 310.67 151.37
  A 133.37 0.58 87.4 0 0 310.83 153.10
  A 291.94 14.28 82.1 0 1 315.33 172.82
  A 130.28 10.75 -52.8 0 0 316.54 173.74
  L 324.96 173.23
  A 1.37 1.37 0.0 0 0 326.16 171.39
  L 325.25 168.75
  L 322.60 162.33
  A 112.30 8.53 60.7 0 1 314.83 148.48
  A 0.42 0.42 0.0 0 1 315.05 147.88
  A 33.99 4.23 -61.4 0 1 315.73 147.88
  A 32.98 4.68 -86.5 0 0 316.39 147.93
  L 319.81 147.34
  L 322.16 147.06
  L 325.83 145.77
  L 329.00 144.64
  A 161.90 13.83 -15.4 0 1 351.07 138.55
  A 0.40 0.31 -0.8 0 0 351.34 138.34
  A 1.19 0.12 -86.3 0 0 351.36 138.25
  A 14.39 1.37 56.4 0 1 351.50 138.11
  L 354.93 137.86
  A 80.16 4.74 -40.4 0 1 355.43 138.44
  A 153.89 2.67 -76.9 0 0 350.64 159.29
  L 350.51 159.82
  L 350.28 161.60
  L 350.50 162.56
  A 87.46 77.64 -27.6 0 0 355.17 172.50
  A 49.61 6.18 -59.8 0 0 355.92 172.95
  L 376.70 173.61
  Z"
/>
<path fill="#82b6dc" d="
  M 125.50 166.29
  A 115.11 15.29 30.2 0 1 125.42 168.74
  A 178.52 28.09 -60.7 0 0 113.09 190.77
  L 112.47 191.53
  L 110.01 192.06
  A 181.20 81.27 -85.0 0 0 98.43 192.89
  A 60.71 12.13 -80.1 0 1 96.69 192.89
  L 73.11 192.75
  A 42.20 5.37 -35.9 0 0 75.22 190.42
  L 78.33 184.84
  L 81.05 179.77
  L 84.01 177.32
  L 84.76 177.07
  L 98.18 173.39
  L 125.50 166.29
  Z"
/>
<path fill="#212e38" d="
  M 334.53 196.66
  A 49.42 17.62 -9.1 0 0 334.60 199.17
  A 38.37 6.58 9.0 0 1 334.46 200.09
  A 154.63 15.36 -0.3 0 0 334.73 202.26
  A 13.40 3.30 -78.7 0 0 335.14 202.57
  A 37.44 5.76 -41.8 0 1 335.68 203.18
  L 336.47 205.83
  A 0.74 0.66 41.7 0 1 336.50 206.09
  L 336.30 217.84
  L 336.37 221.41
  A 573.39 1.00 90.0 0 0 336.42 302.50
  A 8.23 3.43 -15.0 0 0 336.50 302.98
  A 13.12 5.31 -8.5 0 1 336.63 303.72
  L 336.63 328.24
  L 336.44 329.86
  L 336.23 332.18
  L 336.36 333.26
  A 278.48 12.73 -70.0 0 1 336.08 339.25
  A 66.28 14.08 -18.9 0 0 336.41 341.24
  A 21.53 6.50 -13.3 0 1 336.64 342.13
  A 171.57 8.51 -83.2 0 0 337.00 348.85
  A 399.89 8.10 -84.9 0 0 338.58 348.99
  A 283.09 32.20 -73.2 0 0 349.67 310.73
  A 186.75 70.97 -22.3 0 0 351.24 299.50
  A 159.61 13.00 73.1 0 1 351.60 294.49
  A 318.91 7.99 -82.8 0 0 353.28 292.43
  A 71.92 3.81 76.1 0 1 353.91 292.28
  A 31.23 6.51 -26.5 0 1 354.33 293.10
  A 60.00 3.11 -66.6 0 0 354.82 293.31
  L 360.45 289.28
  A 1.35 1.35 0.0 0 0 360.91 288.71
  A 35.37 2.47 -84.5 0 1 361.32 288.06
  L 361.92 287.60
  L 367.73 282.46
  A 332.98 16.31 -60.7 0 1 373.26 277.25
  A 101.55 7.73 -16.1 0 0 375.92 275.37
  A 9.98 6.76 53.5 0 1 376.68 274.79
  L 377.02 274.59
  L 378.96 273.17
  L 379.34 272.70
  A 43.56 31.15 -52.2 0 1 383.20 267.90
  L 384.03 266.72
  L 385.19 265.18
  L 389.12 259.42
  L 390.04 257.78
  A 27.59 6.64 49.6 0 1 390.72 257.13
  L 393.11 253.97
  L 394.72 248.28
  A 41.87 31.23 30.2 0 1 395.65 243.86
  L 396.11 241.12
  L 395.86 237.58
  L 393.15 228.61
  L 391.49 223.71
  A 462.63 3.74 77.0 0 0 388.80 214.42
  A 105.50 1.27 71.0 0 0 383.95 200.31
  A 152.43 25.15 47.6 0 1 382.23 193.38
  A 53.13 5.88 -39.7 0 0 381.70 192.74
  A 23.40 8.30 -61.7 0 0 380.46 192.59
  L 383.03 192.31
  A 135.36 97.61 82.5 0 1 396.82 191.42
  L 432.78 191.72
  L 442.39 191.69
  A 36.68 2.60 -45.0 0 1 442.65 191.95
  L 442.64 192.30
  A 0.43 0.42 -90.0 0 1 442.22 192.73
  L 403.51 192.84
  A 1.44 1.43 -10.3 0 0 402.17 194.77
  L 426.34 260.74
  A 1.12 1.11 59.6 0 1 426.03 261.96
  L 420.91 267.35
  L 417.47 271.14
  A 37.94 25.43 -47.3 0 0 413.86 275.11
  L 409.85 279.54
  L 406.00 283.77
  L 402.58 287.48
  L 398.28 292.33
  L 396.32 294.72
  L 392.83 299.17
  L 391.49 302.25
  A 286.33 88.88 -81.1 0 1 385.19 342.25
  L 384.83 344.78
  L 383.80 350.96
  L 382.31 354.79
  A 1068.67 31.29 -57.7 0 1 301.54 482.53
  A 134.06 27.57 -16.7 0 1 301.43 478.50
  A 137.85 33.16 -74.1 0 1 306.77 459.75
  A 73.96 44.61 10.1 0 0 307.88 453.54
  A 27.79 4.52 -21.1 0 0 307.66 452.94
  A 2.83 2.49 -36.9 0 0 307.40 452.70
  A 37.12 6.29 -30.6 0 1 306.92 451.95
  L 306.53 441.82
  L 306.57 438.56
  A 331.62 39.91 88.9 0 0 305.67 391.67
  L 306.01 382.66
  L 306.39 374.01
  L 306.34 364.22
  L 306.11 344.10
  L 306.25 342.94
  L 306.39 341.26
  A 129.57 1.63 77.6 0 1 306.17 339.20
  A 89.91 51.24 79.8 0 0 306.34 326.94
  A 67.06 8.93 -30.4 0 0 305.72 325.84
  L 305.45 325.67
  A 42.15 2.20 65.1 0 0 305.11 325.83
  L 295.60 410.02
  A 4.49 4.34 -29.4 0 1 295.19 411.40
  L 286.67 428.75
  L 268.24 467.01
  A 539.97 22.59 -65.9 0 0 236.90 536.13
  A 266.24 24.43 48.3 0 1 221.09 514.71
  A 103.61 54.07 52.0 0 0 212.10 503.14
  A 13.51 6.66 -13.1 0 0 211.30 502.41
  A 63.04 10.09 25.9 0 1 211.41 500.88
  A 516.92 24.66 -61.7 0 0 246.13 436.55
  A 300.05 37.54 -62.3 0 0 265.91 399.01
  A 124.02 22.11 52.2 0 0 266.71 395.00
  L 266.78 379.58
  L 267.54 319.98
  L 268.20 269.36
  A 2.67 2.66 4.3 0 0 265.89 266.69
  L 260.39 265.91
  A 0.62 0.61 6.4 0 1 259.86 265.25
  A 2.71 0.89 -79.5 0 0 259.87 264.90
  A 0.44 0.44 0.0 0 0 259.49 264.48
  L 256.83 264.14
  A 26.77 5.31 -63.5 0 1 256.17 263.78
  A 70.05 8.77 -70.0 0 0 255.01 263.34
  A 19.26 6.47 68.8 0 0 254.16 263.68
  A 33.76 6.95 70.9 0 1 253.21 263.94
  L 251.63 263.89
  L 249.31 263.77
  A 26.86 7.20 -68.3 0 1 248.37 263.38
  A 31.00 6.69 -20.0 0 1 247.78 262.59
  A 0.61 0.61 0.0 0 0 247.24 262.19
  L 236.27 261.83
  A 0.42 0.42 0.0 0 1 235.87 261.40
  A 165.95 14.06 -42.4 0 0 234.74 259.74
  A 131.25 7.90 0.7 0 1 231.09 258.60
  A 21.32 6.50 -79.3 0 0 230.19 258.41
  L 224.69 258.52
  A 33.46 4.43 63.5 0 0 224.14 258.82
  A 21.58 3.10 56.2 0 1 223.76 259.04
  L 219.31 259.05
  L 215.38 259.00
  A 18.67 2.21 -0.9 0 1 212.88 259.14
  A 0.96 0.95 13.3 0 0 212.08 259.63
  A 286.73 21.58 71.8 0 1 209.18 260.58
  A 36.96 6.66 -86.9 0 0 208.24 260.53
  A 158.05 40.15 54.4 0 0 203.54 263.72
  A 26.33 7.74 52.6 0 1 202.66 264.37
  A 49.83 12.43 57.7 0 0 201.29 265.49
  A 16.08 2.21 60.2 0 1 201.01 265.63
  L 200.65 265.63
  A 30.94 5.69 69.2 0 0 199.90 265.92
  L 198.29 267.41
  L 193.59 271.14
  A 284.35 32.56 -51.6 0 1 185.24 274.39
  A 65.55 13.38 -7.3 0 1 176.06 275.64
  A 34.12 6.36 -74.7 0 1 175.19 275.41
  A 55.96 10.51 -67.7 0 0 173.74 275.03
  A 55.19 5.06 -5.3 0 0 165.97 275.76
  L 165.02 275.78
  L 162.50 276.01
  A 16.00 6.62 87.5 0 1 161.57 276.15
  A 27.23 12.93 -82.1 0 1 159.77 275.82
  A 42.32 5.86 81.9 0 0 158.95 275.94
  L 157.18 276.34
  L 154.65 275.81
  L 154.03 275.63
  A 0.83 0.77 39.4 0 0 153.55 275.66
  A 75.46 6.38 17.5 0 0 152.87 276.39
  A 73.31 7.04 33.9 0 1 152.32 277.22
  A 36.67 7.94 71.7 0 1 151.15 277.25
  L 151.30 276.32
  L 153.99 251.20
  L 154.56 244.00
  A 36.45 30.82 32.6 0 0 154.57 239.45
  A 75.55 5.86 -47.7 0 0 153.96 238.89
  A 82.28 9.25 -67.3 0 1 152.86 238.13
  A 1.73 1.72 -11.2 0 0 151.44 237.19
  A 143.05 42.37 -74.3 0 1 145.71 235.43
  A 88.48 18.86 69.7 0 0 142.46 234.20
  A 25.23 1.13 8.1 0 1 138.93 233.69
  L 138.88 233.68
  L 138.00 233.25
  L 137.10 232.80
  L 137.06 232.79
  A 53.22 8.72 9.6 0 0 129.67 231.45
  A 20.97 6.49 -64.3 0 1 128.82 231.10
  A 75.32 11.75 -78.5 0 0 127.19 230.78
  A 44.04 6.12 -76.9 0 1 126.35 230.57
  L 122.35 229.32
  L 114.56 228.86
  L 114.52 228.86
  A 7.23 1.87 -54.7 0 1 114.24 228.80
  A 2.87 1.57 47.4 0 1 113.92 228.62
  A 25.57 6.01 -69.3 0 0 113.11 228.36
  L 111.96 228.30
  L 104.34 228.24
  L 99.85 229.22
  A 28.37 6.23 79.8 0 1 98.98 229.36
  L 95.93 229.44
  L 93.29 229.55
  A 86.88 49.36 86.9 0 0 86.31 229.74
  L 84.08 229.71
  L 82.07 229.63
  L 71.02 230.09
  L 65.75 230.20
  A 18.21 12.06 79.5 0 0 64.06 230.44
  A 18.95 6.79 -89.7 0 1 63.10 230.47
  A 193.99 19.30 -17.1 0 0 55.50 230.05
  A 772.20 3.75 4.0 0 1 41.66 229.61
  A 39.26 6.29 -62.8 0 1 40.86 229.22
  A 92.82 9.57 -63.0 0 0 39.50 228.91
  A 15.95 0.60 -43.5 0 1 39.47 228.79
  A 10.01 1.52 37.6 0 0 39.51 228.55
  A 15.58 1.10 -50.2 0 0 39.39 228.45
  A 21.44 11.48 38.7 0 0 37.45 228.77
  A 118.75 10.92 31.9 0 0 36.44 229.96
  A 15.77 1.31 34.7 0 1 36.33 230.11
  A 33.84 0.65 -24.6 0 1 36.22 230.02
  A 16.96 2.25 28.1 0 0 36.37 229.74
  L 36.37 228.71
  A 0.24 0.24 0.0 0 0 35.96 228.54
  L 35.71 228.79
  A 60.52 2.04 -65.3 0 1 35.36 228.63
  A 59.05 3.49 -51.4 0 0 34.96 228.23
  A 471.36 8.27 72.5 0 1 33.62 220.12
  A 316.45 31.68 16.8 0 1 36.75 216.39
  A 280.91 41.35 -50.7 0 0 45.96 214.20
  A 312.48 3.52 -21.9 0 1 86.96 197.71
  A 91.42 70.12 -76.9 0 0 96.69 192.89
  A 60.71 12.13 -80.1 0 0 98.43 192.89
  L 194.85 193.17
  A 70.59 1.30 53.2 0 0 195.32 193.40
  L 195.06 194.14
  L 194.52 196.29
  L 194.52 196.58
  A 214.10 29.00 -87.9 0 1 194.82 225.23
  A 1.85 1.84 2.7 0 0 196.49 227.06
  A 96.15 25.40 -67.3 0 1 199.86 228.31
  A 64.03 5.60 85.5 0 0 200.65 228.25
  A 36.78 12.96 43.4 0 1 202.21 227.21
  A 0.89 0.87 0.7 0 0 202.64 226.80
  L 219.25 193.58
  A 1.30 1.30 0.0 0 1 220.38 192.86
  L 261.47 191.61
  A 52.50 4.43 -51.2 0 1 261.96 192.00
  A 120.37 10.29 -56.9 0 0 263.00 193.07
  L 264.40 193.08
  L 267.90 193.30
  L 270.10 194.37
  L 270.58 194.89
  A 431.41 6.21 52.4 0 0 307.84 243.20
  A 60.12 6.25 27.5 0 0 309.64 245.09
  A 102.50 9.77 19.8 0 1 311.30 247.14
  A 337.91 6.64 79.4 0 0 312.58 246.90
  A 84.79 61.06 62.2 0 0 312.05 235.81
  L 309.47 208.75
  L 308.48 197.75
  A 35.91 17.80 -64.4 0 0 307.90 194.21
  A 0.72 0.72 0.0 0 1 308.62 193.32
  A 114.91 45.59 -2.8 0 0 324.75 193.38
  L 327.20 193.17
  L 330.96 192.99
  L 333.21 193.88
  L 334.53 196.66
  Z"
/>
<path fill="#405a6d" d="
  M 73.11 192.75
  L 96.69 192.89
  A 91.42 70.12 -76.9 0 1 86.96 197.71
  A 312.48 3.52 -21.9 0 0 45.96 214.20
  A 280.91 41.35 -50.7 0 1 36.75 216.39
  A 183.40 54.37 -46.8 0 1 55.16 201.65
  L 55.29 201.55
  L 58.69 198.63
  L 60.26 196.18
  A 62.04 3.69 -36.4 0 0 59.91 195.70
  A 240.73 20.95 -0.1 0 1 25.87 195.69
  L 22.89 195.34
  L 20.25 195.03
  A 137.70 101.90 -1.3 0 1 0.83 194.19
  A 0.56 0.55 2.3 0 1 0.33 193.65
  L 0.33 193.28
  A 0.37 0.37 0.0 0 1 0.71 192.91
  A 216.31 76.73 -1.0 0 0 31.25 193.04
  A 286.32 7.21 15.5 0 1 37.50 193.73
  L 46.35 193.47
  L 52.01 193.06
  A 153.51 24.75 1.4 0 0 73.11 192.75
  Z"
/>
<path fill="#151d23" d="
  M 380.46 192.59
  A 23.40 8.30 -61.7 0 1 381.70 192.74
  A 53.13 5.88 -39.7 0 1 382.23 193.38
  A 152.43 25.15 47.6 0 0 383.95 200.31
  A 105.50 1.27 71.0 0 1 388.80 214.42
  A 462.63 3.74 77.0 0 1 391.49 223.71
  L 393.15 228.61
  L 395.86 237.58
  L 396.11 241.12
  L 395.65 243.86
  A 41.87 31.23 30.2 0 0 394.72 248.28
  L 393.11 253.97
  L 390.72 257.13
  A 27.59 6.64 49.6 0 0 390.04 257.78
  L 389.12 259.42
  L 385.19 265.18
  L 384.03 266.72
  L 383.20 267.90
  A 43.56 31.15 -52.2 0 0 379.34 272.70
  L 378.96 273.17
  L 377.02 274.59
  L 376.68 274.79
  A 9.98 6.76 53.5 0 0 375.92 275.37
  A 101.55 7.73 -16.1 0 1 373.26 277.25
  A 332.98 16.31 -60.7 0 0 367.73 282.46
  L 361.92 287.60
  L 361.32 288.06
  A 35.37 2.47 -84.5 0 0 360.91 288.71
  A 1.35 1.35 0.0 0 1 360.45 289.28
  L 354.82 293.31
  A 60.00 3.11 -66.6 0 1 354.33 293.10
  A 31.23 6.51 -26.5 0 0 353.91 292.28
  A 71.92 3.81 76.1 0 0 353.28 292.43
  A 318.91 7.99 -82.8 0 1 351.60 294.49
  A 259.82 5.03 -86.7 0 1 353.82 258.52
  A 1412.83 10.06 -84.5 0 0 355.18 229.75
  L 353.93 223.31
  L 352.94 219.22
  A 109.91 66.74 53.3 0 0 349.80 205.81
  L 346.42 194.18
  A 0.79 0.78 81.8 0 1 347.16 193.18
  L 380.46 192.59
  Z"
/>
<path fill="#2f4150" d="
  M 334.53 196.66
  L 341.77 207.75
  A 40.95 6.49 -55.9 0 0 342.54 208.25
  A 114.25 36.91 84.3 0 0 347.75 207.89
  A 271.73 14.64 89.5 0 0 349.80 205.81
  A 109.91 66.74 53.3 0 1 352.94 219.22
  L 353.93 223.31
  L 355.18 229.75
  A 1412.83 10.06 -84.5 0 1 353.82 258.52
  A 259.82 5.03 -86.7 0 0 351.60 294.49
  A 159.61 13.00 73.1 0 0 351.24 299.50
  A 186.75 70.97 -22.3 0 1 349.67 310.73
  A 283.09 32.20 -73.2 0 1 338.58 348.99
  A 399.89 8.10 -84.9 0 1 337.00 348.85
  A 171.57 8.51 -83.2 0 1 336.64 342.13
  A 21.53 6.50 -13.3 0 0 336.41 341.24
  A 66.28 14.08 -18.9 0 1 336.08 339.25
  A 278.48 12.73 -70.0 0 0 336.36 333.26
  L 336.23 332.18
  L 336.44 329.86
  L 336.63 328.24
  L 336.63 303.72
  A 13.12 5.31 -8.5 0 0 336.50 302.98
  A 8.23 3.43 -15.0 0 1 336.42 302.50
  A 573.39 1.00 90.0 0 1 336.37 221.41
  L 336.30 217.84
  L 336.50 206.09
  A 0.74 0.66 41.7 0 0 336.47 205.83
  L 335.68 203.18
  A 37.44 5.76 -41.8 0 0 335.14 202.57
  A 13.40 3.30 -78.7 0 1 334.73 202.26
  A 154.63 15.36 -0.3 0 1 334.46 200.09
  A 38.37 6.58 9.0 0 0 334.60 199.17
  A 49.42 17.62 -9.1 0 1 334.53 196.66
  Z"
/>
<path fill="#2f4150" d="
  M 34.96 228.23
  A 59.05 3.49 -51.4 0 1 35.36 228.63
  A 60.52 2.04 -65.3 0 0 35.71 228.79
  L 35.96 228.54
  A 0.24 0.24 0.0 0 1 36.37 228.71
  L 36.37 229.74
  A 16.96 2.25 28.1 0 1 36.22 230.02
  A 33.84 0.65 -24.6 0 0 36.33 230.11
  A 15.77 1.31 34.7 0 0 36.44 229.96
  A 118.75 10.92 31.9 0 1 37.45 228.77
  A 21.44 11.48 38.7 0 1 39.39 228.45
  A 15.58 1.10 -50.2 0 1 39.51 228.55
  A 10.01 1.52 37.6 0 1 39.47 228.79
  A 15.95 0.60 -43.5 0 0 39.50 228.91
  A 92.82 9.57 -63.0 0 1 40.86 229.22
  A 39.26 6.29 -62.8 0 0 41.66 229.61
  A 772.20 3.75 4.0 0 0 55.50 230.05
  A 193.99 19.30 -17.1 0 1 63.10 230.47
  A 18.95 6.79 -89.7 0 0 64.06 230.44
  A 18.21 12.06 79.5 0 1 65.75 230.20
  L 71.02 230.09
  L 82.07 229.63
  L 84.08 229.71
  L 86.31 229.74
  A 86.88 49.36 86.9 0 1 93.29 229.55
  L 95.93 229.44
  L 98.98 229.36
  A 28.37 6.23 79.8 0 0 99.85 229.22
  L 104.37 228.24
  L 111.96 228.30
  L 113.11 228.36
  A 25.57 6.01 -69.3 0 1 113.92 228.62
  A 2.87 1.57 47.4 0 0 114.24 228.80
  A 7.23 1.87 -54.7 0 0 114.52 228.86
  L 114.56 228.86
  L 122.51 229.34
  L 126.35 230.57
  A 44.04 6.12 -76.9 0 0 127.19 230.78
  A 75.32 11.75 -78.5 0 1 128.82 231.10
  A 20.97 6.49 -64.3 0 0 129.67 231.45
  A 53.22 8.72 9.6 0 1 137.06 232.79
  L 137.10 232.80
  L 138.00 233.25
  L 138.88 233.68
  L 138.93 233.69
  A 25.23 1.13 8.1 0 0 142.46 234.20
  A 88.48 18.86 69.7 0 1 145.71 235.43
  A 143.05 42.37 -74.3 0 0 151.44 237.19
  A 1.73 1.72 -11.2 0 1 152.86 238.13
  A 82.28 9.25 -67.3 0 0 153.96 238.89
  A 75.55 5.86 -47.7 0 1 154.57 239.45
  A 36.45 30.82 32.6 0 1 154.56 244.00
  L 153.99 251.20
  L 151.30 276.32
  A 43.41 8.37 -50.9 0 1 150.80 275.07
  A 60.68 5.70 -43.7 0 0 150.24 274.49
  L 139.41 272.70
  A 17.98 6.78 -70.7 0 1 138.51 272.37
  L 136.57 271.65
  L 134.44 270.90
  L 134.14 270.74
  A 59.86 7.71 -89.0 0 0 133.05 270.72
  A 28.56 5.74 77.8 0 1 132.25 270.86
  A 33.18 2.87 -11.5 0 1 131.37 270.63
  A 118.09 23.45 -76.1 0 0 128.07 270.16
  A 24.02 6.66 -85.1 0 1 127.13 270.10
  L 125.86 269.55
  L 124.43 268.97
  L 124.35 268.95
  A 44.55 8.65 12.1 0 1 118.21 267.57
  A 19.54 6.45 10.3 0 0 115.52 266.99
  A 85.30 6.25 10.5 0 0 103.66 264.79
  A 53.00 4.91 39.8 0 1 101.91 264.21
  L 99.07 263.55
  L 97.92 263.36
  L 96.54 263.02
  L 91.30 262.10
  A 41.26 32.06 5.2 0 1 85.49 261.56
  L 78.42 261.25
  L 71.57 260.98
  L 66.98 260.73
  L 61.03 260.24
  A 28.00 6.26 86.0 0 0 60.15 260.34
  L 56.35 260.75
  L 49.92 259.90
  A 50.57 7.39 75.1 0 0 48.91 260.17
  A 91.18 6.22 -86.5 0 1 48.01 260.02
  A 62.66 5.47 -76.2 0 0 47.26 259.83
  A 64.23 10.15 -77.9 0 1 45.77 259.94
  A 28.25 5.31 -47.8 0 1 45.20 259.45
  A 120.31 17.48 -40.6 0 0 43.05 258.04
  A 331.61 58.20 4.2 0 1 38.51 249.50
  A 152.50 39.84 80.8 0 0 34.96 228.23
  Z"
/>
<path fill="#405a6d" d="
  M 43.05 258.04
  A 120.31 17.48 -40.6 0 1 45.20 259.45
  A 28.25 5.31 -47.8 0 0 45.77 259.94
  A 64.23 10.15 -77.9 0 0 47.26 259.83
  A 62.66 5.47 -76.2 0 1 48.01 260.02
  A 91.18 6.22 -86.5 0 0 48.91 260.17
  A 50.57 7.39 75.1 0 1 49.92 259.90
  L 56.42 260.75
  L 60.15 260.34
  A 28.00 6.26 86.0 0 1 61.03 260.24
  L 66.98 260.73
  L 71.57 260.98
  L 78.42 261.25
  L 85.49 261.56
  A 41.26 32.06 5.2 0 0 91.30 262.10
  L 96.54 263.02
  L 97.92 263.36
  L 99.07 263.55
  L 101.91 264.21
  A 53.00 4.91 39.8 0 0 103.66 264.79
  A 85.30 6.25 10.5 0 1 115.52 266.99
  A 19.54 6.45 10.3 0 1 118.21 267.57
  A 44.55 8.65 12.1 0 0 124.35 268.95
  L 124.43 268.97
  L 125.86 269.55
  L 127.13 270.10
  A 24.02 6.66 -85.1 0 0 128.07 270.16
  A 118.09 23.45 -76.1 0 1 131.37 270.63
  A 33.18 2.87 -11.5 0 0 132.25 270.86
  A 28.56 5.74 77.8 0 0 133.05 270.72
  A 59.86 7.71 -89.0 0 1 134.14 270.74
  L 134.44 270.90
  L 136.57 271.65
  L 138.51 272.37
  A 17.98 6.78 -70.7 0 0 139.41 272.70
  L 150.24 274.49
  A 60.68 5.70 -43.7 0 1 150.80 275.07
  A 43.41 8.37 -50.9 0 0 151.30 276.32
  L 151.15 277.25
  L 148.66 306.21
  A 415.81 14.90 -84.8 0 0 143.31 364.77
  A 42.37 23.65 6.2 0 1 142.59 368.05
  A 0.63 0.63 0.0 0 1 141.62 368.34
  A 365.68 194.16 17.9 0 0 103.07 341.59
  L 43.05 258.04
  Z"
/>
<path fill="#2f4150" d="
  M 267.54 319.98
  A 3.64 2.05 -39.7 0 1 267.43 319.70
  A 37.71 3.68 -52.5 0 0 267.02 319.38
  A 2.84 1.74 25.9 0 0 266.67 319.38
  A 21.35 2.53 52.6 0 0 266.38 319.59
  L 266.02 320.48
  A 79.44 4.77 75.3 0 1 265.28 320.67
  A 154.64 20.19 -80.7 0 0 262.47 320.16
  A 139.75 10.88 44.0 0 0 261.84 321.69
  A 0.20 0.20 0.0 0 1 261.56 321.91
  A 85.67 7.21 -27.8 0 1 261.12 320.99
  A 73.39 5.30 -31.1 0 0 260.73 320.35
  A 74.15 8.53 -42.2 0 1 259.86 319.51
  A 19.06 1.66 -47.1 0 0 259.67 319.37
  A 5.80 0.80 18.5 0 1 259.34 319.37
  A 56.44 4.20 46.4 0 0 258.91 319.78
  L 258.86 321.51
  A 75.51 4.92 51.0 0 1 258.27 321.97
  L 252.15 320.72
  A 58.09 1.79 -6.5 0 1 252.12 320.38
  A 30.04 6.40 74.0 0 1 253.04 320.31
  A 134.42 6.02 39.0 0 0 253.74 319.49
  A 0.56 0.54 78.8 0 0 253.28 319.17
  L 248.49 318.81
  A 18.31 3.10 -60.6 0 1 248.10 318.61
  A 1.81 1.41 53.1 0 0 247.93 318.42
  A 16.37 3.26 -52.0 0 0 247.51 318.21
  A 69.89 35.02 -87.4 0 0 242.56 318.03
  A 76.88 6.75 45.5 0 0 241.88 318.70
  A 8.92 2.15 26.8 0 1 241.76 318.98
  A 44.49 5.53 70.4 0 1 241.03 319.26
  A 52.35 40.05 7.7 0 1 233.79 317.77
  L 230.92 317.33
  L 228.03 316.89
  L 226.61 316.60
  L 222.25 316.37
  L 220.68 316.37
  A 0.31 0.31 0.0 0 1 220.38 316.00
  A 26.11 3.14 46.7 0 1 220.66 315.65
  A 46.39 2.48 13.0 0 0 220.75 315.24
  A 32.49 3.74 -72.0 0 0 220.23 315.13
  A 13.01 1.31 32.4 0 0 220.12 315.28
  L 220.12 315.54
  A 0.58 0.58 0.0 0 1 219.68 316.10
  A 90.38 12.51 -79.2 0 1 217.95 315.73
  A 9.47 1.70 -18.0 0 1 217.82 315.52
  A 18.44 3.90 -13.4 0 1 217.88 314.94
  A 0.28 0.27 -3.8 0 0 217.49 314.60
  L 216.86 314.95
  A 24.02 3.69 85.2 0 1 216.34 314.99
  L 207.89 312.14
  A 31.16 6.14 -50.1 0 1 207.21 311.60
  A 80.85 7.65 -74.3 0 0 206.21 311.16
  A 43.18 7.20 -83.4 0 1 205.20 311.03
  A 71.42 22.04 -49.2 0 1 202.93 308.89
  A 49.61 7.32 -59.8 0 0 202.04 308.36
  A 38.81 8.26 71.8 0 0 200.90 308.63
  A 50.91 5.38 -87.8 0 1 200.14 308.60
  A 88.92 8.40 86.8 0 0 198.95 308.59
  A 73.92 7.79 86.9 0 1 197.85 308.65
  L 193.00 305.78
  A 1.43 1.37 -30.6 0 0 192.19 305.59
  A 159.91 79.23 -86.5 0 1 181.01 304.85
  A 22.33 6.14 79.0 0 0 180.13 304.87
  A 24.96 5.72 87.5 0 1 179.32 304.86
  L 174.83 304.89
  L 172.92 305.13
  A 63.44 10.89 -2.4 0 0 163.96 305.44
  A 61.25 6.46 52.9 0 0 163.23 305.99
  L 162.83 307.15
  A 0.74 0.74 0.0 0 1 162.16 307.64
  L 149.12 308.18
  A 51.27 4.34 -52.9 0 1 148.63 307.81
  A 38.99 9.44 -33.5 0 1 148.66 306.21
  L 151.15 277.25
  A 36.67 7.94 71.7 0 0 152.32 277.22
  A 73.31 7.04 33.9 0 0 152.87 276.39
  A 75.46 6.38 17.5 0 1 153.55 275.66
  A 0.83 0.77 39.4 0 1 154.03 275.63
  L 154.65 275.81
  L 157.18 276.34
  L 158.95 275.94
  A 42.32 5.86 81.9 0 1 159.77 275.82
  A 27.23 12.93 -82.1 0 0 161.57 276.15
  A 16.00 6.62 87.5 0 0 162.50 276.01
  L 165.02 275.78
  L 165.97 275.76
  A 55.19 5.06 -5.3 0 1 173.74 275.03
  A 55.96 10.51 -67.7 0 1 175.19 275.41
  A 34.12 6.36 -74.7 0 0 176.06 275.64
  A 65.55 13.38 -7.3 0 0 185.24 274.39
  A 284.35 32.56 -51.6 0 0 193.59 271.14
  L 198.29 267.41
  L 199.90 265.92
  A 30.94 5.69 69.2 0 1 200.65 265.63
  L 201.01 265.63
  A 16.08 2.21 60.2 0 0 201.29 265.49
  A 49.83 12.43 57.7 0 1 202.66 264.37
  A 26.33 7.74 52.6 0 0 203.54 263.72
  A 158.05 40.15 54.4 0 1 208.24 260.53
  A 36.96 6.66 -86.9 0 1 209.18 260.58
  A 286.73 21.58 71.8 0 0 212.08 259.63
  A 0.96 0.95 13.3 0 1 212.88 259.14
  A 18.67 2.21 -0.9 0 0 215.38 259.00
  L 219.31 259.05
  L 223.76 259.04
  A 21.58 3.10 56.2 0 0 224.14 258.82
  A 33.46 4.43 63.5 0 1 224.69 258.52
  L 230.19 258.41
  A 21.32 6.50 -79.3 0 1 231.09 258.60
  A 131.25 7.90 0.7 0 0 234.74 259.74
  A 165.95 14.06 -42.4 0 1 235.87 261.40
  A 0.42 0.42 0.0 0 0 236.27 261.83
  L 247.24 262.19
  A 0.61 0.61 0.0 0 1 247.78 262.59
  A 31.00 6.69 -20.0 0 0 248.37 263.38
  A 26.86 7.20 -68.3 0 0 249.31 263.77
  L 251.63 263.89
  L 253.21 263.94
  A 33.76 6.95 70.9 0 0 254.16 263.68
  A 19.26 6.47 68.8 0 1 255.01 263.34
  A 70.05 8.77 -70.0 0 1 256.17 263.78
  A 26.77 5.31 -63.5 0 0 256.83 264.14
  L 259.49 264.48
  A 0.44 0.44 0.0 0 1 259.87 264.90
  A 2.71 0.89 -79.5 0 1 259.86 265.25
  A 0.62 0.61 6.4 0 0 260.39 265.91
  L 265.89 266.69
  A 2.67 2.66 4.3 0 1 268.20 269.36
  L 267.54 319.98
  Z"
/>
<path fill="#354a59" d="
  M 267.54 319.98
  L 266.78 379.58
  L 266.71 395.00
  A 124.02 22.11 52.2 0 1 265.91 399.01
  A 300.05 37.54 -62.3 0 1 246.13 436.55
  A 555.88 28.82 -54.1 0 0 241.45 434.70
  A 1.03 1.02 57.7 0 1 240.21 434.42
  A 102.14 7.34 -85.0 0 0 239.18 434.28
  A 29.47 6.82 65.9 0 1 238.28 434.63
  L 236.92 434.33
  L 235.57 434.07
  L 234.70 434.47
  A 0.36 0.36 0.0 0 1 234.30 434.50
  L 234.01 434.35
  A 26.62 6.66 -77.0 0 0 233.09 434.15
  A 26.30 23.94 -0.0 0 1 229.37 434.15
  A 181.38 1.22 5.7 0 0 225.64 433.95
  A 117.95 85.93 3.7 0 1 208.99 432.93
  L 205.79 432.79
  L 202.03 432.56
  A 64.15 55.13 -81.6 0 0 194.25 431.98
  A 40.21 6.62 -66.6 0 1 193.39 431.61
  A 58.57 5.92 -66.8 0 0 192.54 431.47
  A 50.91 5.24 34.6 0 0 192.12 432.08
  L 192.12 432.75
  A 69.97 3.48 61.3 0 1 191.59 433.04
  A 76.23 9.09 -37.2 0 1 191.02 431.86
  L 191.97 418.22
  L 192.58 410.70
  A 215.10 31.98 -85.8 0 1 194.78 380.36
  A 33.16 6.38 -15.7 0 0 194.54 379.49
  A 17.07 7.40 -19.0 0 1 194.06 378.55
  A 238.13 20.89 -58.7 0 0 191.60 376.91
  A 33.44 6.13 -72.6 0 1 190.76 376.69
  A 94.63 23.97 -71.7 0 0 187.58 375.51
  A 18.63 6.69 -74.5 0 1 186.67 375.25
  A 77.48 25.53 -78.4 0 0 183.17 374.35
  A 168.97 3.42 -21.9 0 0 180.41 374.94
  L 178.24 375.13
  L 175.81 375.44
  L 175.45 375.60
  A 42.65 8.00 -62.6 0 1 173.95 376.08
  A 70.37 62.85 -1.8 0 1 164.00 376.27
  A 46.89 6.68 66.1 0 0 163.13 376.64
  A 103.10 16.26 61.6 0 1 161.04 377.61
  A 25.90 6.26 -74.4 0 1 160.19 377.36
  A 243.47 25.00 -88.6 0 0 156.65 377.50
  A 23.03 5.79 72.5 0 1 155.88 377.78
  L 150.21 378.20
  A 45.16 3.40 43.2 0 0 149.88 378.55
  L 149.88 378.88
  A 88.00 0.42 4.5 0 1 149.00 378.87
  A 19.67 2.75 -59.5 0 1 148.66 378.68
  A 64.80 3.23 87.7 0 0 148.10 378.70
  L 147.87 379.41
  L 148.14 380.99
  L 148.42 382.62
  L 148.36 382.94
  A 24.02 5.38 -4.9 0 0 148.40 383.70
  L 186.42 485.15
  A 5.55 5.48 -55.3 0 1 186.77 487.14
  L 186.75 507.52
  L 186.24 544.45
  A 1.84 1.84 0.0 0 0 187.50 546.29
  A 156.10 1.38 69.3 0 1 188.29 547.83
  A 118.20 8.56 83.6 0 1 187.29 549.72
  A 197.45 12.38 -70.1 0 1 185.47 549.07
  L 165.14 490.47
  L 143.70 428.58
  L 137.11 413.42
  A 107.65 26.32 63.6 0 1 130.37 399.77
  A 491.15 19.65 65.8 0 1 103.07 341.59
  A 365.68 194.16 17.9 0 1 141.62 368.34
  A 0.63 0.63 0.0 0 0 142.59 368.05
  A 42.37 23.65 6.2 0 0 143.31 364.77
  A 415.81 14.90 -84.8 0 1 148.66 306.21
  A 38.99 9.44 -33.5 0 0 148.63 307.81
  A 51.27 4.34 -52.9 0 0 149.12 308.18
  L 162.16 307.64
  A 0.74 0.74 0.0 0 0 162.83 307.15
  L 163.23 305.99
  A 61.25 6.46 52.9 0 1 163.96 305.44
  A 63.44 10.89 -2.4 0 1 172.92 305.13
  L 174.83 304.89
  L 179.32 304.86
  A 24.96 5.72 87.5 0 0 180.13 304.87
  A 22.33 6.14 79.0 0 1 181.01 304.85
  A 159.91 79.23 -86.5 0 0 192.19 305.59
  A 1.43 1.37 -30.6 0 1 193.00 305.78
  L 197.85 308.65
  A 73.92 7.79 86.9 0 0 198.95 308.59
  A 88.92 8.40 86.8 0 1 200.14 308.60
  A 50.91 5.38 -87.8 0 0 200.90 308.63
  A 38.81 8.26 71.8 0 1 202.04 308.36
  A 49.61 7.32 -59.8 0 1 202.93 308.89
  A 71.42 22.04 -49.2 0 0 205.20 311.03
  A 43.18 7.20 -83.4 0 0 206.21 311.16
  A 80.85 7.65 -74.3 0 1 207.21 311.60
  A 31.16 6.14 -50.1 0 0 207.89 312.14
  L 216.34 314.99
  A 24.02 3.69 85.2 0 0 216.86 314.95
  L 217.49 314.60
  A 0.28 0.27 -3.8 0 1 217.88 314.94
  A 18.44 3.90 -13.4 0 0 217.82 315.52
  A 9.47 1.70 -18.0 0 0 217.95 315.73
  A 90.38 12.51 -79.2 0 0 219.68 316.10
  A 0.58 0.58 0.0 0 0 220.12 315.54
  L 220.12 315.28
  A 13.01 1.31 32.4 0 1 220.23 315.13
  A 32.49 3.74 -72.0 0 1 220.75 315.24
  A 46.39 2.48 13.0 0 1 220.66 315.65
  A 26.11 3.14 46.7 0 0 220.38 316.00
  A 0.31 0.31 0.0 0 0 220.68 316.37
  L 222.25 316.37
  L 226.61 316.60
  L 228.03 316.89
  L 230.92 317.33
  L 233.79 317.77
  A 52.35 40.05 7.7 0 0 241.03 319.26
  A 44.49 5.53 70.4 0 0 241.76 318.98
  A 8.92 2.15 26.8 0 0 241.88 318.70
  A 76.88 6.75 45.5 0 1 242.56 318.03
  A 69.89 35.02 -87.4 0 1 247.51 318.21
  A 16.37 3.26 -52.0 0 1 247.93 318.42
  A 1.81 1.41 53.1 0 1 248.10 318.61
  A 18.31 3.10 -60.6 0 0 248.49 318.81
  L 253.28 319.17
  A 0.56 0.54 78.8 0 1 253.74 319.49
  A 134.42 6.02 39.0 0 1 253.04 320.31
  A 30.04 6.40 74.0 0 0 252.12 320.38
  A 58.09 1.79 -6.5 0 0 252.15 320.72
  L 258.27 321.97
  A 75.51 4.92 51.0 0 0 258.86 321.51
  L 258.91 319.78
  A 56.44 4.20 46.4 0 1 259.34 319.37
  A 5.80 0.80 18.5 0 0 259.67 319.37
  A 19.06 1.66 -47.1 0 1 259.86 319.51
  A 74.15 8.53 -42.2 0 0 260.73 320.35
  A 73.39 5.30 -31.1 0 1 261.12 320.99
  A 85.67 7.21 -27.8 0 0 261.56 321.91
  A 0.20 0.20 0.0 0 0 261.84 321.69
  A 139.75 10.88 44.0 0 1 262.47 320.16
  A 154.64 20.19 -80.7 0 1 265.28 320.67
  A 79.44 4.77 75.3 0 0 266.02 320.48
  L 266.38 319.59
  A 21.35 2.53 52.6 0 1 266.67 319.38
  A 2.84 1.74 25.9 0 1 267.02 319.38
  A 37.71 3.68 -52.5 0 1 267.43 319.70
  A 3.64 2.05 -39.7 0 0 267.54 319.98
  Z"
/>
<path fill="#151d23" d="
  M 301.54 482.53
  L 298.46 489.65
  L 298.30 490.16
  A 139.57 3.59 -72.3 0 0 293.65 505.71
  A 218.09 113.96 -85.0 0 0 277.53 505.11
  L 277.17 505.16
  L 276.05 505.48
  L 274.93 505.79
  L 273.96 505.86
  A 358.02 25.00 48.9 0 0 271.54 508.51
  L 271.40 517.84
  L 271.46 537.29
  L 271.54 539.04
  L 271.97 561.91
  L 271.98 564.70
  L 272.17 566.75
  L 272.38 570.41
  L 271.56 573.03
  L 271.48 573.16
  A 297.84 20.86 -35.0 0 1 267.15 572.60
  A 382.65 7.64 49.7 0 1 236.90 536.13
  A 539.97 22.59 -65.9 0 1 268.24 467.01
  L 286.67 428.75
  L 295.19 411.40
  A 4.49 4.34 -29.4 0 0 295.60 410.02
  L 305.11 325.83
  A 42.15 2.20 65.1 0 1 305.45 325.67
  L 305.72 325.84
  A 67.06 8.93 -30.4 0 1 306.34 326.94
  A 89.91 51.24 79.8 0 1 306.17 339.20
  A 129.57 1.63 77.6 0 0 306.39 341.26
  L 306.25 342.94
  L 306.11 344.10
  L 306.34 364.22
  L 306.39 374.01
  L 306.01 382.66
  L 305.67 391.67
  A 331.62 39.91 88.9 0 1 306.57 438.56
  L 306.53 441.82
  L 306.92 451.95
  A 37.12 6.29 -30.6 0 0 307.40 452.70
  A 2.83 2.49 -36.9 0 1 307.66 452.94
  A 27.79 4.52 -21.1 0 1 307.88 453.54
  A 73.96 44.61 10.1 0 1 306.77 459.75
  A 137.85 33.16 -74.1 0 0 301.43 478.50
  A 134.06 27.57 -16.7 0 0 301.54 482.53
  Z"
/>
<path fill="#405a6d" d="
  M 246.13 436.55
  A 516.92 24.66 -61.7 0 1 211.41 500.88
  A 63.04 10.09 25.9 0 0 211.30 502.41
  A 50.84 18.54 44.3 0 0 209.69 504.50
  L 200.59 523.07
  L 188.29 547.83
  A 156.10 1.38 69.3 0 0 187.50 546.29
  A 1.84 1.84 0.0 0 1 186.24 544.45
  L 186.75 507.52
  L 186.77 487.14
  A 5.55 5.48 -55.3 0 0 186.42 485.15
  L 148.40 383.70
  A 24.02 5.38 -4.9 0 1 148.36 382.94
  L 148.42 382.62
  L 148.14 380.99
  L 147.87 379.41
  L 148.10 378.70
  A 64.80 3.23 87.7 0 1 148.66 378.68
  A 19.67 2.75 -59.5 0 0 149.00 378.87
  A 88.00 0.42 4.5 0 0 149.88 378.88
  L 149.88 378.55
  A 45.16 3.40 43.2 0 1 150.21 378.20
  L 155.88 377.78
  A 23.03 5.79 72.5 0 0 156.65 377.50
  A 243.47 25.00 -88.6 0 1 160.19 377.36
  A 25.90 6.26 -74.4 0 0 161.04 377.61
  A 103.10 16.26 61.6 0 0 163.13 376.64
  A 46.89 6.68 66.1 0 1 164.00 376.27
  A 70.37 62.85 -1.8 0 0 173.95 376.08
  A 42.65 8.00 -62.6 0 0 175.45 375.60
  L 175.81 375.44
  L 178.24 375.13
  L 180.41 374.94
  A 168.97 3.42 -21.9 0 1 183.17 374.35
  A 77.48 25.53 -78.4 0 1 186.67 375.25
  A 18.63 6.69 -74.5 0 0 187.58 375.51
  A 94.63 23.97 -71.7 0 1 190.76 376.69
  A 33.44 6.13 -72.6 0 0 191.60 376.91
  A 238.13 20.89 -58.7 0 1 194.06 378.55
  A 17.07 7.40 -19.0 0 0 194.54 379.49
  A 33.16 6.38 -15.7 0 1 194.78 380.36
  A 215.10 31.98 -85.8 0 0 192.58 410.70
  L 191.97 418.22
  L 191.02 431.86
  A 76.23 9.09 -37.2 0 0 191.59 433.04
  A 69.97 3.48 61.3 0 0 192.12 432.75
  L 192.12 432.08
  A 50.91 5.24 34.6 0 1 192.54 431.47
  A 58.57 5.92 -66.8 0 1 193.39 431.61
  A 40.21 6.62 -66.6 0 0 194.25 431.98
  A 64.15 55.13 -81.6 0 1 202.03 432.56
  L 205.79 432.79
  L 208.99 432.93
  A 117.95 85.93 3.7 0 0 225.64 433.95
  A 181.38 1.22 5.7 0 1 229.37 434.15
  A 26.30 23.94 -0.0 0 0 233.09 434.15
  A 26.62 6.66 -77.0 0 1 234.01 434.35
  L 234.30 434.50
  A 0.36 0.36 0.0 0 0 234.70 434.47
  L 235.57 434.07
  L 236.92 434.33
  L 238.28 434.63
  A 29.47 6.82 65.9 0 0 239.18 434.28
  A 102.14 7.34 -85.0 0 1 240.21 434.42
  A 1.03 1.02 57.7 0 0 241.45 434.70
  A 555.88 28.82 -54.1 0 1 246.13 436.55
  Z"
/>
<path fill="#212e38" d="
  M 293.65 505.71
  L 274.15 572.68
  A 65.05 6.01 54.4 0 1 273.47 573.19
  L 271.48 573.16
  L 271.56 573.03
  L 272.38 570.41
  L 272.17 566.75
  L 271.98 564.70
  L 271.97 561.91
  L 271.54 539.04
  L 271.46 537.29
  L 271.40 517.84
  L 271.54 508.51
  A 358.02 25.00 48.9 0 1 273.96 505.86
  L 274.93 505.79
  L 276.05 505.48
  L 277.17 505.16
  L 277.53 505.11
  A 218.09 113.96 -85.0 0 1 293.65 505.71
  Z"
/>
</svg>
