<?xml version="1.0" encoding="UTF-8" standalone="no"?>
<svg xmlns="http://www.w3.org/2000/svg" version="1.2" baseProfile="tiny" viewBox="0.00 0.00 1200.00 438.00" width="1200.00" height="438.00">
<path fill="#edd8a4" d="
  M 0.00 0.00
  L 1200.00 0.00
  L 1200.00 438.00
  L 0.00 438.00
  L 0.00 0.00
  Z"
/>
<path fill="#894f3d" d="
  M 1185.58 417.31
  A 2.61 2.61 0.0 0 1 1182.97 419.92
  L 17.05 419.92
  A 2.61 2.61 0.0 0 1 14.44 417.31
  L 14.44 20.77
  A 2.61 2.61 0.0 0 1 17.05 18.16
  L 1182.97 18.16
  A 2.61 2.61 0.0 0 1 1185.58 20.77
  L 1185.58 417.31
  Z"
/>
<path fill="#edd8a4" d="
  M 1146.76 400.29
  L 1172.17 400.30
  A 310.36 21.90 44.7 0 0 1174.36 398.09
  L 1174.29 386.25
  A 110.75 7.80 -45.4 0 0 1173.50 385.47
  L 1170.75 385.50
  A 1.00 1.00 0.0 0 0 1169.76 386.50
  L 1169.76 394.59
  A 1.09 1.09 0.0 0 1 1168.66 395.68
  L 1151.43 395.58
  A 0.65 0.65 0.0 0 1 1150.79 394.93
  L 1150.76 364.79
  A 0.70 0.69 0.0 0 1 1151.46 364.10
  L 1180.25 364.09
  A 0.65 0.65 0.0 0 1 1180.90 364.75
  L 1180.77 370.98
  A 70.55 5.10 46.2 0 1 1180.26 371.49
  L 1159.78 371.51
  A 2.44 2.44 0.0 0 0 1157.34 373.97
  L 1157.41 387.05
  A 1.20 1.20 0.0 0 0 1158.80 388.23
  L 1160.51 387.96
  A 178.95 14.79 40.7 0 0 1161.87 386.37
  L 1161.86 376.89
  A 0.88 0.88 0.0 0 1 1162.74 376.01
  L 1180.45 376.05
  A 0.40 0.40 0.0 0 1 1180.85 376.45
  L 1180.83 407.06
  A 0.40 0.40 0.0 0 1 1180.43 407.46
  L 1139.40 407.48
  A 0.41 0.41 0.0 0 1 1138.99 407.06
  L 1139.12 361.42
  A 1.95 1.95 0.0 0 0 1137.17 359.46
  L 1089.52 359.48
  A 386.53 27.50 44.8 0 0 1086.77 362.23
  L 1086.81 399.54
  A 0.73 0.73 0.0 0 0 1087.54 400.27
  L 1113.26 400.34
  A 1.63 1.62 0.4 0 0 1114.89 398.74
  L 1115.03 386.26
  A 110.04 7.80 -44.3 0 0 1114.26 385.47
  L 1111.04 385.42
  A 112.22 7.81 45.3 0 0 1110.24 386.21
  L 1110.36 395.00
  A 0.62 0.61 -0.5 0 1 1109.75 395.61
  L 1092.40 395.65
  A 1.00 0.99 90.0 0 1 1091.41 394.65
  L 1091.42 364.68
  A 0.59 0.58 0.0 0 1 1092.01 364.10
  L 1133.81 364.09
  A 0.72 0.72 0.0 0 1 1134.53 364.81
  L 1134.40 411.12
  A 138.25 9.80 -45.0 0 0 1135.38 412.10
  L 1179.96 412.04
  A 0.92 0.91 0.3 0 1 1180.88 412.96
  L 1180.87 414.50
  A 131.19 9.30 45.0 0 1 1179.94 415.43
  L 1022.34 415.50
  L 752.65 415.49
  L 660.48 415.46
  L 640.00 415.47
  A 2186.73 8.98 -0.0 0 0 330.75 415.62
  A 233.35 6.98 0.1 0 1 297.75 415.57
  A 834.39 38.90 0.0 0 0 179.75 415.48
  A 138.42 2.98 -10.3 0 0 176.07 415.73
  L 167.83 415.65
  L 160.92 415.43
  A 147.77 4.03 4.8 0 1 154.75 415.46
  A 4277.80 11.00 -0.9 0 0 58.20 415.48
  L 46.49 415.43
  L 20.37 415.55
  A 191.96 13.36 -45.8 0 1 19.00 414.20
  L 19.01 413.27
  A 167.88 12.10 45.5 0 1 20.23 412.07
  L 65.05 412.02
  A 0.57 0.57 0.0 0 0 65.62 411.45
  L 65.76 373.57
  A 2.17 2.17 0.0 0 0 63.57 371.39
  L 39.19 371.55
  A 438.02 31.15 44.7 0 0 36.09 374.68
  L 36.12 386.77
  A 221.68 14.84 -48.0 0 0 37.77 388.24
  L 39.26 388.08
  A 190.78 15.03 41.6 0 0 40.67 386.49
  L 40.58 377.16
  A 159.41 11.25 44.5 0 1 41.71 376.03
  L 60.08 376.04
  A 0.91 0.90 -90.0 0 1 60.98 376.95
  L 61.02 406.98
  A 0.51 0.50 -90.0 0 1 60.52 407.49
  L 19.73 407.46
  A 0.48 0.47 90.0 0 1 19.26 406.98
  L 19.31 78.72
  A 101.57 7.20 45.0 0 1 20.03 78.00
  L 64.57 78.01
  A 1.57 1.57 0.0 0 0 66.14 76.44
  L 66.32 39.81
  A 2.49 2.48 89.8 0 0 63.81 37.31
  L 39.19 37.56
  A 2.27 2.27 0.0 0 0 36.94 39.80
  L 36.79 52.78
  A 1.19 1.19 0.0 0 0 38.03 53.99
  L 39.93 53.90
  A 195.48 14.16 43.1 0 0 41.30 52.44
  L 41.06 42.21
  A 67.02 4.70 44.4 0 1 41.53 41.73
  L 61.07 41.98
  A 0.60 0.60 0.0 0 1 61.66 42.58
  L 61.68 72.59
  A 0.64 0.64 0.0 0 1 61.04 73.23
  L 19.74 73.26
  A 0.52 0.52 0.0 0 1 19.22 72.74
  L 19.26 23.03
  A 64.89 4.60 45.0 0 1 19.72 22.57
  L 1180.00 22.56
  A 124.14 8.80 -45.0 0 1 1180.88 23.44
  L 1180.89 24.65
  A 0.66 0.66 0.0 0 1 1180.23 25.31
  L 1149.71 25.32
  A 418.26 29.60 44.9 0 0 1146.75 28.29
  L 1146.84 65.33
  A 0.88 0.87 -90.0 0 0 1147.71 66.21
  L 1173.51 66.22
  A 1.49 1.48 -0.0 0 0 1175.00 64.74
  L 1175.01 52.32
  A 129.81 9.50 -43.8 0 0 1174.07 51.36
  L 1171.26 51.28
  A 136.90 9.55 46.1 0 0 1170.28 52.24
  L 1170.33 60.83
  A 0.66 0.65 -0.4 0 1 1169.67 61.49
  L 1152.04 61.50
  A 0.63 0.63 0.0 0 1 1151.41 60.87
  L 1151.36 30.57
  A 0.57 0.57 0.0 0 1 1151.93 30.00
  L 1180.37 29.98
  A 71.94 5.10 -45.0 0 1 1180.88 30.49
  L 1180.82 36.86
  A 75.47 5.45 45.5 0 1 1180.27 37.40
  L 1160.42 37.46
  A 2.42 2.42 0.0 0 0 1158.01 39.87
  L 1157.96 53.02
  A 1.00 0.99 88.1 0 0 1159.02 54.02
  L 1161.22 53.90
  A 176.42 13.31 43.2 0 0 1162.51 52.53
  L 1162.50 42.43
  A 0.57 0.56 -0.0 0 1 1163.07 41.87
  L 1180.52 41.97
  A 0.30 0.30 0.0 0 1 1180.82 42.27
  L 1180.80 72.98
  A 0.29 0.28 90.0 0 1 1180.52 73.27
  L 1140.72 73.27
  A 148.12 10.50 -45.0 0 1 1139.67 72.22
  L 1139.74 27.15
  A 1.84 1.83 0.2 0 0 1137.90 25.31
  L 1089.83 25.32
  A 2.36 2.36 0.0 0 0 1087.48 27.68
  L 1087.50 65.47
  A 100.87 7.15 -44.6 0 0 1088.22 66.18
  L 1114.29 66.21
  A 1.25 1.25 0.0 0 0 1115.54 64.96
  L 1115.57 52.30
  A 143.24 10.01 -45.3 0 0 1114.55 51.29
  L 1111.83 51.32
  A 122.76 8.80 43.7 0 0 1110.96 52.21
  L 1110.99 61.00
  A 0.50 0.49 90.0 0 1 1110.50 61.50
  L 1092.33 61.50
  A 0.31 0.30 -90.0 0 1 1092.03 61.19
  L 1091.97 30.51
  A 74.06 5.25 45.6 0 1 1092.49 29.98
  L 1134.54 30.00
  A 0.54 0.54 0.0 0 1 1135.08 30.54
  L 1134.91 77.20
  A 0.79 0.79 0.0 0 0 1135.70 78.00
  L 1180.13 77.96
  A 0.54 0.53 90.0 0 1 1180.66 78.50
  L 1180.70 359.27
  A 0.22 0.22 0.0 0 1 1180.48 359.49
  L 1148.27 359.47
  A 149.40 15.34 55.9 0 0 1146.49 360.71
  A 86.81 16.62 53.8 0 0 1146.04 364.00
  A 268.45 49.11 -86.4 0 1 1146.18 399.70
  A 82.54 5.80 -44.5 0 0 1146.76 400.29
  Z"
/>
<path fill="#894f3d" d="
  M 119.81 72.71
  L 119.75 42.71
  A 110.04 7.90 -45.7 0 0 118.96 41.92
  L 100.00 41.93
  A 0.57 0.56 90.0 0 0 99.44 42.50
  L 99.45 52.93
  A 119.98 9.10 43.0 0 1 98.57 53.87
  L 95.90 54.05
  A 132.90 9.13 -46.7 0 1 94.93 53.14
  L 94.89 39.79
  A 2.34 2.33 89.9 0 1 97.21 37.45
  L 122.07 37.38
  A 2.31 2.31 0.0 0 1 124.38 39.67
  A 248.17 44.38 88.4 0 1 124.25 74.25
  A 24.41 20.47 68.7 0 1 123.98 77.56
  A 0.55 0.54 3.6 0 1 123.44 78.03
  L 73.67 77.89
  A 0.84 0.83 3.6 0 1 72.84 76.95
  A 40.47 26.66 63.2 0 0 73.14 72.00
  A 293.59 9.97 -89.9 0 1 73.22 30.48
  A 65.61 4.60 -44.4 0 0 72.76 30.01
  L 30.50 29.97
  A 74.07 5.20 44.5 0 0 29.98 30.50
  L 30.19 60.86
  A 93.12 6.70 -45.9 0 0 30.86 61.53
  L 48.42 61.41
  A 0.59 0.58 -0.5 0 0 49.00 60.83
  L 49.00 52.25
  A 0.77 0.77 0.0 0 1 49.75 51.48
  L 52.84 51.39
  A 100.89 7.10 -46.2 0 1 53.57 52.09
  L 53.76 64.88
  A 1.39 1.38 -0.4 0 1 52.37 66.28
  L 26.22 66.24
  A 0.52 0.52 0.0 0 1 25.70 65.72
  A 231.44 20.98 89.8 0 1 25.51 33.00
  A 311.45 4.29 86.0 0 1 25.73 27.47
  A 336.55 27.85 43.8 0 1 29.00 25.15
  A 334.19 19.00 0.2 0 1 76.24 25.40
  A 1.59 1.59 0.0 0 1 77.82 27.00
  L 77.68 72.39
  A 134.72 9.55 -44.7 0 0 78.64 73.34
  L 119.29 73.24
  A 0.52 0.52 0.0 0 0 119.81 72.71
  Z"
/>
<path fill="#894f3d" d="
  M 158.75 42.45
  L 158.74 52.51
  A 166.67 13.01 42.1 0 1 157.50 53.87
  L 155.46 54.05
  A 1.09 1.09 0.0 0 1 154.27 52.96
  L 154.25 40.35
  A 409.10 29.00 45.0 0 1 157.15 37.45
  L 181.54 37.38
  A 2.20 2.19 89.9 0 1 183.74 39.58
  L 183.72 76.27
  A 245.46 17.40 45.0 0 1 181.98 78.01
  L 133.00 77.96
  A 0.76 0.75 87.0 0 1 132.25 77.28
  A 33.48 14.33 -72.3 0 1 132.04 73.50
  A 302.81 25.92 89.8 0 1 131.92 30.68
  A 0.70 0.70 0.0 0 0 131.22 29.98
  L 89.30 30.01
  A 61.37 4.35 45.7 0 0 88.87 30.45
  L 88.86 60.87
  A 0.64 0.64 0.0 0 0 89.50 61.51
  L 106.92 61.48
  A 0.89 0.89 0.0 0 0 107.81 60.58
  L 107.75 52.49
  A 162.23 11.50 44.5 0 1 108.89 51.33
  L 111.49 51.29
  A 136.85 9.65 -45.0 0 1 112.47 52.25
  L 112.50 64.64
  A 1.63 1.63 0.0 0 1 110.86 66.28
  L 84.98 66.08
  A 0.60 0.60 0.0 0 1 84.38 65.48
  L 84.26 28.27
  A 419.67 29.70 44.9 0 1 87.23 25.29
  L 134.69 25.32
  A 1.87 1.86 -90.0 0 1 136.55 27.19
  L 136.52 72.75
  A 0.60 0.60 0.0 0 0 137.12 73.35
  L 178.47 73.23
  A 0.70 0.69 90.0 0 0 179.16 72.53
  L 179.20 42.56
  A 0.64 0.63 -0.0 0 0 178.56 41.93
  L 159.30 41.90
  A 77.59 5.50 45.0 0 0 158.75 42.45
  Z"
/>
<path fill="#894f3d" d="
  M 237.98 41.93
  L 218.85 41.86
  A 110.07 7.70 44.3 0 0 218.08 42.65
  L 218.27 52.46
  A 170.23 13.07 41.9 0 1 217.04 53.84
  L 214.79 54.05
  A 151.01 10.22 -48.2 0 1 213.67 53.04
  L 213.62 40.64
  A 442.95 31.40 44.8 0 1 216.75 37.49
  L 240.95 37.35
  A 2.10 2.10 0.0 0 1 243.07 39.45
  L 243.07 76.45
  A 214.42 15.20 45.0 0 1 241.55 77.97
  L 191.27 77.96
  A 98.04 6.95 -44.6 0 1 190.57 77.27
  L 190.75 30.62
  A 0.63 0.63 0.0 0 0 190.12 29.99
  L 148.04 29.98
  A 0.48 0.48 0.0 0 0 147.56 30.46
  L 147.59 60.90
  A 0.60 0.59 90.0 0 0 148.18 61.50
  L 166.17 61.50
  A 0.41 0.40 -90.0 0 0 166.57 61.09
  L 166.55 51.92
  A 0.64 0.63 -88.7 0 1 167.21 51.28
  L 170.59 51.41
  A 0.68 0.68 0.0 0 1 171.25 52.09
  L 171.24 64.75
  A 1.49 1.48 -89.8 0 1 169.75 66.24
  L 143.74 66.16
  A 0.67 0.66 90.0 0 1 143.08 65.49
  L 143.12 27.96
  A 375.24 26.70 45.2 0 1 145.79 25.29
  L 193.44 25.31
  A 266.62 18.90 -45.0 0 1 195.33 27.20
  L 195.31 72.68
  A 0.63 0.63 0.0 0 0 195.94 73.31
  L 237.86 73.31
  A 94.52 6.70 45.0 0 0 238.53 72.64
  L 238.52 42.48
  A 75.47 5.45 -44.5 0 0 237.98 41.93
  Z"
/>
<path fill="#894f3d" d="
  M 297.94 72.79
  L 297.96 42.68
  A 0.79 0.78 90.0 0 0 297.18 41.89
  L 278.07 41.87
  A 80.41 5.70 45.0 0 0 277.50 42.44
  L 277.50 52.54
  A 186.23 13.70 44.1 0 1 276.16 53.94
  L 274.29 54.02
  A 178.60 12.41 -46.1 0 1 273.00 52.78
  L 272.99 40.13
  A 372.42 26.40 44.8 0 1 275.62 37.48
  L 300.32 37.38
  A 2.19 2.18 89.9 0 1 302.51 39.57
  L 302.47 76.24
  A 241.23 17.10 45.0 0 1 300.76 77.95
  L 250.46 78.02
  A 0.92 0.91 -87.4 0 1 249.55 77.02
  A 53.34 29.46 82.5 0 0 249.91 69.75
  A 277.66 28.93 89.9 0 0 250.04 30.54
  A 0.55 0.55 0.0 0 0 249.49 29.99
  L 207.25 29.99
  A 0.27 0.26 0.0 0 0 206.98 30.25
  L 207.02 61.02
  A 0.50 0.50 0.0 0 0 207.52 61.52
  L 225.24 61.48
  A 0.71 0.70 -1.2 0 0 225.94 60.76
  L 225.79 52.23
  A 0.95 0.95 0.0 0 1 226.77 51.26
  L 229.45 51.34
  A 157.30 11.45 -44.2 0 1 230.58 52.50
  L 230.55 64.87
  A 1.42 1.42 0.0 0 1 229.13 66.28
  L 203.08 66.17
  A 0.59 0.59 0.0 0 1 202.49 65.58
  L 202.48 27.56
  A 2.21 2.21 0.0 0 1 204.69 25.35
  L 252.99 25.26
  A 1.74 1.73 -0.0 0 1 254.73 26.99
  L 254.73 72.78
  A 0.55 0.55 0.0 0 0 255.28 73.33
  L 297.46 73.27
  A 0.48 0.48 0.0 0 0 297.94 72.79
  Z"
/>
<path fill="#894f3d" d="
  M 356.01 72.68
  L 356.04 42.69
  A 0.85 0.85 0.0 0 0 355.19 41.84
  L 336.17 41.85
  A 0.62 0.62 0.0 0 0 335.55 42.47
  L 335.62 52.72
  A 151.73 11.26 43.1 0 1 334.53 53.88
  L 332.02 54.02
  A 0.79 0.79 0.0 0 1 331.18 53.22
  A 81.20 19.75 84.9 0 0 331.05 42.25
  L 331.19 39.59
  L 332.00 38.08
  L 334.25 37.40
  A 173.89 35.18 2.4 0 0 358.32 37.38
  A 318.86 22.41 -45.5 0 1 360.60 39.62
  L 360.59 76.68
  A 179.86 12.75 45.2 0 1 359.32 77.96
  L 310.00 77.94
  A 1.04 1.03 -87.7 0 1 308.97 76.82
  L 309.66 61.91
  L 309.55 41.00
  L 309.41 30.64
  A 0.63 0.63 0.0 0 0 308.78 30.01
  L 266.89 29.96
  A 0.52 0.52 0.0 0 0 266.37 30.48
  L 266.39 60.59
  A 0.95 0.94 89.7 0 0 267.34 61.54
  L 284.73 61.49
  A 0.59 0.59 0.0 0 0 285.32 60.90
  L 285.31 52.24
  A 131.33 9.11 46.2 0 1 286.26 51.33
  L 289.11 51.45
  A 121.39 8.90 -43.0 0 1 289.98 52.36
  L 289.92 64.80
  A 1.46 1.46 0.0 0 1 288.45 66.25
  L 262.26 66.11
  A 0.36 0.36 0.0 0 1 261.90 65.75
  L 261.78 28.25
  A 402.04 28.50 44.8 0 1 264.62 25.39
  L 311.70 25.26
  A 344.20 24.35 -45.2 0 1 314.14 27.70
  L 314.04 72.57
  A 0.79 0.79 0.0 0 0 314.83 73.36
  L 355.44 73.26
  A 0.58 0.57 -90.0 0 0 356.01 72.68
  Z"
/>
<path fill="#894f3d" d="
  M 415.48 72.92
  L 415.46 42.58
  A 0.63 0.63 0.0 0 0 414.83 41.95
  L 395.60 41.89
  A 0.63 0.62 -90.0 0 0 394.98 42.52
  L 395.00 52.67
  A 1.06 1.06 0.0 0 1 394.08 53.72
  L 391.84 54.00
  A 177.18 11.78 -48.5 0 1 390.52 52.83
  L 390.51 40.00
  A 2.51 2.51 0.0 0 1 393.00 37.49
  L 417.39 37.31
  A 366.07 25.90 -45.1 0 1 419.99 39.90
  L 419.95 76.00
  A 275.08 19.50 45.0 0 1 418.00 77.95
  L 368.82 77.90
  A 0.58 0.58 0.0 0 1 368.24 77.32
  L 368.21 30.72
  A 0.74 0.73 0.0 0 0 367.47 29.99
  L 325.52 30.00
  A 0.48 0.48 0.0 0 0 325.04 30.48
  L 325.09 60.91
  A 0.61 0.60 -0.0 0 0 325.70 61.51
  L 343.50 61.52
  A 0.63 0.62 89.5 0 0 344.12 60.88
  L 344.00 52.52
  A 174.26 12.20 44.8 0 1 345.23 51.28
  L 347.51 51.29
  A 169.99 12.15 -44.8 0 1 348.72 52.51
  L 348.68 64.65
  A 1.60 1.60 0.0 0 1 347.07 66.25
  L 321.43 66.17
  A 0.86 0.85 90.0 0 1 320.58 65.31
  L 320.55 27.72
  A 2.43 2.43 0.0 0 1 322.98 25.29
  L 371.11 25.29
  A 1.70 1.70 0.0 0 1 372.81 26.99
  L 372.76 72.44
  A 0.93 0.92 -0.0 0 0 373.69 73.36
  L 415.08 73.33
  A 0.41 0.40 90.0 0 0 415.48 72.92
  Z"
/>
<path fill="#894f3d" d="
  M 474.79 72.75
  L 474.75 42.45
  A 0.55 0.54 89.5 0 0 474.21 41.91
  L 455.01 41.87
  A 0.62 0.62 0.0 0 0 454.39 42.49
  L 454.44 52.65
  A 150.37 11.36 42.6 0 1 453.35 53.83
  L 451.11 54.01
  A 1.14 1.14 0.0 0 1 449.87 52.86
  L 449.97 39.99
  A 2.55 2.55 0.0 0 1 452.51 37.46
  L 476.97 37.38
  A 2.34 2.34 0.0 0 1 479.31 39.72
  L 479.34 76.32
  A 234.17 16.55 44.7 0 1 477.68 77.98
  L 427.41 77.92
  A 0.54 0.54 0.0 0 1 426.87 77.38
  L 426.93 30.72
  A 0.71 0.70 0.0 0 0 426.22 30.02
  L 384.51 29.99
  A 105.80 7.50 45.0 0 0 383.76 30.74
  L 383.87 60.88
  A 0.64 0.64 0.0 0 0 384.51 61.52
  L 402.42 61.53
  A 0.45 0.45 0.0 0 0 402.87 61.08
  L 402.78 52.25
  A 136.94 9.51 45.6 0 1 403.76 51.29
  L 406.57 51.37
  A 0.95 0.95 0.0 0 1 407.49 52.32
  L 407.48 64.59
  A 1.59 1.59 0.0 0 1 405.89 66.18
  L 380.04 66.18
  A 0.65 0.65 0.0 0 1 379.39 65.54
  L 379.36 28.24
  A 411.21 29.10 44.9 0 1 382.27 25.32
  L 429.55 25.26
  A 287.78 20.40 -45.0 0 1 431.59 27.30
  L 431.49 72.67
  A 0.68 0.68 0.0 0 0 432.17 73.35
  L 474.25 73.29
  A 0.54 0.54 0.0 0 0 474.79 72.75
  Z"
/>
<path fill="#894f3d" d="
  M 532.95 41.90
  L 513.60 41.83
  A 0.57 0.57 0.0 0 0 513.02 42.41
  L 513.12 52.52
  A 153.33 12.07 41.6 0 1 511.99 53.80
  L 509.79 54.03
  A 150.47 10.13 -48.4 0 1 508.67 53.03
  L 508.65 40.05
  A 2.57 2.56 -0.2 0 1 511.20 37.49
  L 535.98 37.34
  A 2.14 2.13 -0.0 0 1 538.13 39.48
  L 538.07 76.56
  A 183.39 13.20 45.0 0 1 536.75 77.88
  A 213.29 32.71 2.4 0 1 507.45 77.74
  L 493.22 77.93
  L 486.62 78.09
  A 0.87 0.86 -88.8 0 1 485.74 77.17
  L 486.40 59.57
  L 486.30 35.34
  L 486.24 30.46
  A 0.48 0.48 0.0 0 0 485.76 29.99
  L 443.87 29.99
  A 89.58 6.35 45.5 0 0 443.24 30.63
  L 443.25 61.00
  A 0.51 0.50 -90.0 0 0 443.75 61.51
  L 461.51 61.50
  A 0.75 0.75 0.0 0 0 462.26 60.74
  L 462.20 52.27
  A 0.92 0.91 -1.0 0 1 463.10 51.35
  L 465.77 51.27
  A 1.01 1.01 0.0 0 1 466.81 52.28
  L 466.84 64.44
  A 1.78 1.78 0.0 0 1 465.06 66.23
  L 438.97 66.20
  A 0.23 0.23 0.0 0 1 438.74 65.97
  L 438.69 27.57
  A 2.25 2.24 -90.0 0 1 440.93 25.32
  L 489.14 25.31
  A 1.83 1.82 90.0 0 1 490.96 27.14
  L 490.98 72.73
  A 0.51 0.50 90.0 0 0 491.48 73.24
  L 532.85 73.41
  A 0.77 0.76 0.0 0 0 533.63 72.64
  L 533.49 42.45
  A 76.89 5.45 -45.5 0 0 532.95 41.90
  Z"
/>
<path fill="#894f3d" d="
  M 590.91 41.92
  L 571.61 41.87
  A 0.36 0.36 0.0 0 0 571.25 42.23
  L 571.27 52.74
  A 136.95 10.51 42.6 0 1 570.26 53.83
  L 567.80 54.02
  A 0.98 0.98 0.0 0 1 566.75 53.04
  L 566.76 39.88
  A 2.38 2.38 0.0 0 1 569.12 37.50
  L 594.06 37.35
  A 2.18 2.17 89.6 0 1 596.25 39.52
  A 242.06 14.97 -89.9 0 1 596.16 73.75
  A 28.25 19.60 60.5 0 1 595.92 77.21
  A 100.41 8.22 49.0 0 1 595.04 77.97
  L 545.50 77.96
  A 0.92 0.92 0.0 0 1 544.58 76.97
  A 77.90 38.13 -77.2 0 0 545.01 66.50
  A 254.58 0.01 -90.0 0 1 545.03 30.53
  A 0.54 0.54 0.0 0 0 544.49 29.99
  L 502.75 29.98
  A 0.77 0.77 0.0 0 0 501.98 30.75
  L 502.01 61.02
  A 0.51 0.50 0.0 0 0 502.52 61.52
  L 520.24 61.51
  A 0.75 0.75 0.0 0 0 520.99 60.76
  L 520.95 52.07
  A 0.72 0.72 0.0 0 1 521.68 51.35
  L 524.98 51.38
  A 0.61 0.60 0.5 0 1 525.58 51.98
  L 525.55 64.66
  A 1.46 1.46 0.0 0 1 524.09 66.12
  L 497.99 66.21
  A 0.47 0.47 0.0 0 1 497.51 65.74
  L 497.49 27.54
  A 2.22 2.22 0.0 0 1 499.71 25.32
  L 547.77 25.31
  A 277.20 19.65 -44.9 0 1 549.74 27.27
  L 549.61 72.59
  A 0.73 0.73 0.0 0 0 550.34 73.32
  L 591.20 73.31
  A 71.95 5.05 43.9 0 0 591.71 72.80
  L 591.66 42.66
  A 105.10 7.45 -44.6 0 0 590.91 41.92
  Z"
/>
<path fill="#894f3d" d="
  M 579.73 60.77
  L 579.73 51.94
  A 0.58 0.58 0.0 0 1 580.31 51.36
  L 583.74 51.40
  A 80.41 5.80 -45.0 0 1 584.31 51.99
  L 584.32 64.81
  A 1.38 1.38 0.0 0 1 582.94 66.20
  L 556.71 66.18
  A 0.48 0.47 -0.0 0 1 556.23 65.71
  L 556.23 27.57
  A 2.20 2.20 0.0 0 1 558.43 25.37
  L 606.33 25.31
  A 303.29 21.50 -45.0 0 1 608.48 27.46
  L 608.47 72.92
  A 0.45 0.45 0.0 0 0 608.92 73.37
  L 650.49 73.25
  A 0.50 0.50 0.0 0 0 650.99 72.75
  L 651.09 42.48
  A 0.62 0.61 90.0 0 0 650.48 41.86
  L 631.29 41.80
  A 93.82 6.60 45.4 0 0 630.62 42.46
  L 630.64 52.78
  A 122.19 9.56 42.0 0 1 629.73 53.78
  L 627.28 54.03
  A 1.00 1.00 0.0 0 1 626.19 53.03
  L 626.17 40.19
  A 372.43 26.50 44.6 0 1 628.81 37.53
  L 653.36 37.36
  A 2.25 2.25 0.0 0 1 655.63 39.61
  L 655.55 76.85
  A 160.82 11.40 45.0 0 1 654.41 77.99
  L 605.49 77.92
  A 236.99 16.80 -45.0 0 1 603.81 76.24
  L 603.75 30.50
  A 0.51 0.51 0.0 0 0 603.24 29.99
  L 561.26 29.98
  A 72.65 5.15 44.4 0 0 560.74 30.49
  L 560.75 61.25
  A 0.25 0.25 0.0 0 0 561.00 61.50
  L 578.98 61.51
  A 105.10 7.45 44.6 0 0 579.73 60.77
  Z"
/>
<path fill="#894f3d" d="
  M 710.47 72.68
  L 710.45 42.53
  A 0.66 0.66 0.0 0 0 709.78 41.87
  L 690.53 41.94
  A 75.47 5.35 44.5 0 0 689.99 42.47
  L 690.01 52.47
  A 166.01 12.87 41.8 0 1 688.79 53.82
  L 686.56 54.02
  A 0.97 0.96 -2.5 0 1 685.51 53.06
  L 685.50 40.60
  A 445.07 31.55 45.1 0 1 688.65 37.44
  L 712.45 37.40
  A 359.72 25.50 -45.0 0 1 715.00 39.95
  L 714.98 76.23
  A 240.52 17.05 44.8 0 1 713.27 77.93
  L 663.32 77.88
  A 0.81 0.81 0.0 0 1 662.51 77.07
  L 662.52 30.51
  A 0.51 0.51 0.0 0 0 662.01 30.00
  L 620.04 29.92
  A 0.54 0.53 -89.5 0 0 619.50 30.46
  L 619.49 61.00
  A 0.51 0.51 0.0 0 0 620.00 61.51
  L 637.99 61.52
  A 72.66 5.10 45.5 0 0 638.51 61.01
  L 638.50 52.00
  A 0.73 0.72 -88.9 0 1 639.25 51.27
  L 642.45 51.39
  A 90.99 6.65 -44.6 0 1 643.10 52.07
  L 643.08 64.69
  A 1.53 1.52 -89.8 0 1 641.56 66.21
  L 615.71 66.18
  A 0.74 0.73 0.4 0 1 614.98 65.45
  L 614.97 27.95
  A 364.66 25.95 44.9 0 1 617.56 25.35
  L 665.42 25.32
  A 1.85 1.84 0.2 0 1 667.27 27.17
  L 667.17 72.79
  A 86.77 6.10 -45.5 0 0 667.79 73.40
  L 709.80 73.35
  A 0.67 0.67 0.0 0 0 710.47 72.68
  Z"
/>
<path fill="#894f3d" d="
  M 769.77 72.75
  L 769.78 42.33
  A 0.45 0.44 0.0 0 0 769.33 41.89
  L 750.00 41.90
  A 83.94 6.05 45.5 0 0 749.39 42.50
  L 749.28 52.47
  A 165.15 13.01 43.0 0 1 748.03 53.82
  L 746.30 53.98
  A 176.46 11.97 -47.7 0 1 744.99 52.80
  L 744.93 39.80
  A 2.29 2.28 89.7 0 1 747.20 37.50
  L 772.13 37.35
  A 2.27 2.26 89.9 0 1 774.41 39.63
  L 774.33 76.43
  A 214.42 15.20 45.0 0 1 772.81 77.95
  L 721.98 78.01
  A 0.52 0.52 0.0 0 1 721.46 77.47
  L 721.66 73.51
  L 721.88 68.52
  A 267.58 8.00 -89.9 0 1 721.96 30.71
  A 0.72 0.72 0.0 0 0 721.24 29.99
  L 679.32 29.98
  A 63.48 4.50 45.0 0 0 678.87 30.43
  L 678.91 60.83
  A 0.68 0.67 89.6 0 0 679.59 61.51
  L 697.18 61.51
  A 0.68 0.68 0.0 0 0 697.86 60.82
  L 697.75 52.26
  A 139.71 9.75 45.6 0 1 698.74 51.27
  L 701.79 51.32
  A 0.72 0.72 0.0 0 1 702.50 52.04
  L 702.49 64.62
  A 1.60 1.60 0.0 0 1 700.88 66.21
  L 675.15 66.18
  A 107.92 7.75 -44.6 0 1 674.38 65.40
  L 674.30 27.64
  A 2.12 2.12 0.0 0 1 676.01 25.56
  A 48.49 19.98 38.5 0 1 679.75 25.22
  A 317.66 15.97 0.1 0 1 724.67 25.36
  A 265.21 19.00 -44.7 0 1 726.56 27.27
  L 726.58 72.45
  A 122.73 8.70 -45.0 0 0 727.45 73.32
  L 769.25 73.27
  A 73.36 5.20 45.0 0 0 769.77 72.75
  Z"
/>
<path fill="#894f3d" d="
  M 738.22 30.50
  L 738.25 61.02
  A 0.52 0.51 89.5 0 0 738.77 61.54
  L 756.48 61.53
  A 0.76 0.76 0.0 0 0 757.24 60.77
  L 757.19 52.29
  A 143.28 9.96 45.8 0 1 758.21 51.28
  L 761.05 51.34
  A 0.71 0.71 0.0 0 1 761.75 52.05
  L 761.92 64.49
  A 1.66 1.65 -0.5 0 1 760.26 66.17
  L 734.18 66.11
  A 0.43 0.43 0.0 0 1 733.75 65.68
  L 733.74 27.48
  A 2.04 2.03 89.9 0 1 735.77 25.43
  L 783.99 25.25
  A 1.99 1.99 0.0 0 1 785.99 27.24
  L 785.97 72.75
  A 74.77 5.30 -45.0 0 0 786.50 73.28
  L 827.26 73.31
  A 79.71 5.65 45.5 0 0 827.82 72.74
  L 827.84 42.79
  A 131.90 9.35 -45.3 0 0 826.91 41.85
  L 808.09 41.80
  A 0.61 0.60 -89.5 0 0 807.48 42.41
  L 807.46 52.47
  A 158.22 12.52 41.9 0 1 806.28 53.79
  L 804.37 54.01
  A 171.95 11.51 -48.0 0 1 803.09 52.87
  L 803.06 39.99
  A 2.46 2.45 89.9 0 1 805.50 37.53
  L 830.31 37.35
  A 2.20 2.20 0.0 0 1 832.52 39.56
  L 832.45 76.25
  A 240.52 17.05 45.2 0 1 830.75 77.96
  L 782.00 77.95
  A 1.18 1.18 0.0 0 1 780.83 76.65
  A 49.96 27.97 79.2 0 0 781.18 70.00
  A 279.03 16.95 -89.8 0 0 781.29 30.54
  A 74.77 5.30 -45.0 0 0 780.76 30.01
  L 738.75 29.97
  A 74.77 5.30 45.0 0 0 738.22 30.50
  Z"
/>
<path fill="#894f3d" d="
  M 867.23 41.87
  A 0.40 0.40 0.0 0 0 866.83 42.27
  L 866.89 52.42
  A 177.95 13.61 42.3 0 1 865.59 53.84
  L 863.80 54.00
  A 177.70 12.11 -47.7 0 1 862.49 52.80
  L 862.41 39.80
  A 2.30 2.29 -0.4 0 1 864.70 37.49
  L 889.75 37.36
  A 2.13 2.12 -90.0 0 1 891.88 39.50
  L 891.73 76.50
  A 206.66 14.75 45.2 0 1 890.25 77.97
  L 841.06 77.92
  A 0.95 0.95 0.0 0 1 840.11 76.97
  L 839.98 30.49
  A 0.49 0.49 0.0 0 0 839.49 30.00
  L 797.25 29.98
  A 0.27 0.26 90.0 0 0 796.99 30.25
  L 796.99 60.77
  A 109.33 7.75 -44.6 0 0 797.77 61.54
  L 815.37 61.51
  A 0.62 0.62 0.0 0 0 815.99 60.88
  L 815.86 52.46
  A 165.76 11.70 44.8 0 1 817.03 51.28
  L 819.50 51.28
  A 169.28 12.00 -45.0 0 1 820.70 52.48
  L 820.65 64.65
  A 1.55 1.55 0.0 0 1 819.10 66.19
  L 793.21 66.18
  A 0.72 0.71 -90.0 0 1 792.50 65.46
  L 792.48 27.92
  A 366.78 26.00 45.0 0 1 795.08 25.32
  L 843.02 25.29
  A 1.72 1.72 0.0 0 1 844.75 27.02
  L 844.58 72.53
  A 0.85 0.84 0.0 0 0 845.43 73.37
  L 886.76 73.28
  A 0.54 0.54 0.0 0 0 887.30 72.74
  L 887.28 42.48
  A 76.89 5.45 -44.5 0 0 886.73 41.94
  L 867.23 41.87
  Z"
/>
<path fill="#894f3d" d="
  M 898.26 29.99
  L 856.24 30.01
  A 70.53 5.00 45.0 0 0 855.74 30.51
  L 855.71 61.08
  A 0.42 0.42 0.0 0 0 856.13 61.50
  L 874.24 61.52
  A 71.94 5.10 45.0 0 0 874.75 61.01
  L 874.74 52.02
  A 0.73 0.72 -89.2 0 1 875.48 51.29
  L 878.47 51.39
  A 112.15 8.15 -44.6 0 1 879.27 52.22
  L 879.35 64.67
  A 1.52 1.51 -0.2 0 1 877.83 66.19
  L 851.70 66.15
  A 0.45 0.45 0.0 0 1 851.25 65.70
  L 851.23 27.78
  A 351.96 24.90 44.9 0 1 853.72 25.28
  L 901.64 25.29
  A 260.97 18.50 -45.0 0 1 903.49 27.14
  L 903.48 72.99
  A 0.27 0.26 90.0 0 0 903.74 73.26
  L 946.27 73.42
  A 0.44 0.44 0.0 0 0 946.71 72.98
  L 946.72 42.58
  A 0.64 0.64 0.0 0 0 946.08 41.94
  L 926.79 41.91
  A 0.55 0.55 0.0 0 0 926.24 42.46
  L 926.29 52.72
  A 139.77 10.61 42.7 0 1 925.28 53.83
  L 922.80 54.03
  A 0.99 0.98 -2.2 0 1 921.74 53.05
  L 921.74 40.13
  A 2.64 2.64 0.0 0 1 924.37 37.49
  L 948.80 37.38
  A 2.42 2.42 0.0 0 1 951.23 39.80
  L 951.24 76.64
  A 177.74 12.60 45.0 0 1 949.98 77.90
  L 899.47 77.98
  A 0.76 0.75 -90.0 0 1 898.72 77.22
  L 898.78 30.51
  A 73.36 5.20 -45.0 0 0 898.26 29.99
  Z"
/>
<path fill="#894f3d" d="
  M 915.10 30.43
  L 915.18 60.84
  A 0.67 0.67 0.0 0 0 915.85 61.51
  L 933.28 61.49
  A 0.77 0.77 0.0 0 0 934.05 60.72
  L 933.96 52.28
  A 1.02 1.01 89.7 0 1 934.97 51.25
  L 937.76 51.26
  A 142.48 10.10 -45.0 0 1 938.77 52.27
  L 938.69 64.65
  A 1.58 1.58 0.0 0 1 937.10 66.22
  L 911.11 66.17
  A 78.30 5.55 -45.5 0 1 910.56 65.61
  L 910.53 27.96
  A 354.79 25.15 44.7 0 1 913.04 25.44
  L 960.47 25.27
  A 345.61 24.45 -45.2 0 1 962.92 27.72
  L 962.75 72.53
  A 0.79 0.78 0.4 0 0 963.53 73.31
  L 1005.45 73.37
  A 79.71 5.65 45.5 0 0 1006.01 72.80
  L 1006.01 42.47
  A 0.54 0.54 0.0 0 0 1005.47 41.93
  L 986.02 41.91
  A 0.45 0.44 -90.0 0 0 985.58 42.36
  L 985.60 52.78
  A 0.99 0.99 0.0 0 1 984.72 53.76
  L 982.33 54.03
  A 0.97 0.97 0.0 0 1 981.25 53.08
  L 981.13 40.32
  A 397.82 28.10 44.6 0 1 983.93 37.48
  L 1008.61 37.35
  A 2.02 2.01 -0.1 0 1 1010.64 39.36
  L 1010.66 76.63
  A 182.68 12.95 44.8 0 1 1009.36 77.92
  L 958.47 77.95
  A 0.83 0.83 0.0 0 1 957.64 77.06
  L 958.32 61.87
  L 958.30 40.79
  L 958.21 30.72
  A 0.71 0.70 0.0 0 0 957.50 30.02
  L 915.57 29.95
  A 67.01 4.75 45.6 0 0 915.10 30.43
  Z"
/>
<path fill="#894f3d" d="
  M 1043.73 42.48
  L 1043.73 52.46
  A 158.30 12.73 41.4 0 1 1042.54 53.81
  L 1040.64 54.04
  A 174.10 11.66 -48.6 0 1 1039.34 52.89
  L 1039.29 40.19
  A 2.77 2.77 0.0 0 1 1042.06 37.41
  L 1066.68 37.38
  A 2.11 2.11 0.0 0 1 1068.79 39.49
  L 1068.72 76.63
  A 190.44 13.50 45.0 0 1 1067.37 77.98
  L 1018.06 77.98
  A 0.67 0.67 0.0 0 1 1017.39 77.31
  L 1017.58 30.54
  A 0.54 0.53 -0.0 0 0 1017.04 30.01
  L 975.02 29.99
  A 0.50 0.50 0.0 0 0 974.52 30.49
  L 974.46 60.54
  A 1.07 1.07 0.0 0 0 975.54 61.61
  L 992.75 61.47
  A 0.72 0.72 0.0 0 0 993.47 60.75
  L 993.45 52.01
  A 0.77 0.77 0.0 0 1 994.24 51.24
  L 997.12 51.33
  A 124.85 9.15 -44.7 0 1 998.03 52.25
  L 998.12 64.65
  A 1.52 1.51 90.0 0 1 996.60 66.18
  L 970.94 66.12
  A 129.79 9.30 -45.6 0 1 970.01 65.19
  L 969.87 28.62
  A 461.99 32.70 44.9 0 1 973.14 25.34
  L 1020.31 25.28
  A 1.94 1.94 0.0 0 1 1022.25 27.22
  L 1022.24 72.52
  A 110.03 7.80 -45.0 0 0 1023.02 73.30
  L 1063.40 73.26
  A 0.67 0.66 -89.6 0 0 1064.06 72.60
  L 1064.15 42.40
  A 0.50 0.50 0.0 0 0 1063.65 41.90
  L 1044.27 41.93
  A 76.89 5.45 45.5 0 0 1043.73 42.48
  Z"
/>
<path fill="#894f3d" d="
  M 1033.23 30.50
  L 1033.24 61.00
  A 0.51 0.51 0.0 0 0 1033.75 61.51
  L 1051.50 61.52
  A 0.76 0.76 0.0 0 0 1052.26 60.75
  L 1052.19 52.29
  A 1.02 1.01 90.0 0 1 1053.21 51.26
  L 1055.70 51.26
  A 167.87 11.90 -45.0 0 1 1056.89 52.45
  L 1056.86 64.20
  A 289.19 20.50 45.3 0 1 1054.80 66.24
  L 1029.32 66.15
  A 0.58 0.58 0.0 0 1 1028.74 65.57
  L 1028.73 27.95
  A 372.42 26.30 45.0 0 1 1031.37 25.31
  L 1079.53 25.32
  A 1.47 1.47 0.0 0 1 1080.99 26.79
  L 1080.99 72.79
  A 0.56 0.55 -0.0 0 0 1081.55 73.34
  L 1122.87 73.28
  A 0.65 0.65 0.0 0 0 1123.52 72.63
  L 1123.51 42.47
  A 0.55 0.54 90.0 0 0 1122.97 41.92
  L 1103.84 41.90
  A 0.75 0.74 -0.4 0 0 1103.09 42.65
  L 1103.20 52.73
  A 1.05 1.04 86.7 0 1 1102.27 53.78
  L 1099.78 54.03
  A 150.59 10.09 -47.9 0 1 1098.66 53.03
  L 1098.63 40.55
  A 434.49 30.80 44.8 0 1 1101.70 37.46
  L 1125.57 37.38
  A 351.26 25.00 -45.0 0 1 1128.08 39.87
  A 235.87 15.64 89.2 0 1 1128.06 72.50
  A 40.25 23.47 70.0 0 1 1127.78 77.48
  A 0.48 0.48 0.0 0 1 1127.30 77.90
  L 1077.72 77.84
  A 193.97 13.75 -44.8 0 1 1076.34 76.47
  L 1076.26 30.26
  A 0.26 0.25 -90.0 0 0 1076.01 30.00
  L 1033.75 29.98
  A 73.36 5.20 45.0 0 0 1033.23 30.50
  Z"
/>
<path fill="#894f3d" d="
  M 107.24 395.05
  L 107.21 386.74
  A 182.00 12.80 45.4 0 1 108.51 385.46
  L 110.49 385.49
  A 173.51 12.50 -45.0 0 1 111.74 386.74
  L 111.83 398.74
  A 222.89 15.80 44.6 0 1 110.26 400.33
  L 84.46 400.38
  A 0.68 0.67 -0.0 0 1 83.78 399.71
  L 83.62 361.95
  A 2.43 2.43 0.0 0 1 86.05 359.51
  L 133.66 359.40
  A 318.11 22.55 -45.1 0 1 135.91 361.66
  L 135.93 406.49
  A 0.82 0.81 0.4 0 0 136.74 407.30
  L 177.72 407.67
  A 0.89 0.89 0.0 0 0 178.62 406.78
  L 178.50 376.64
  A 0.61 0.61 0.0 0 0 177.89 376.03
  L 158.79 376.02
  A 0.69 0.69 0.0 0 0 158.10 376.71
  L 158.09 386.25
  A 226.73 18.07 42.0 0 1 156.38 388.15
  L 155.34 388.26
  A 214.30 14.46 -48.4 0 1 153.74 386.84
  L 153.62 374.22
  A 2.67 2.67 0.0 0 1 156.28 371.52
  L 181.03 371.50
  A 2.03 2.03 0.0 0 1 183.06 373.53
  L 182.99 410.70
  A 1.20 1.19 -90.0 0 1 181.80 411.90
  L 131.97 412.16
  A 0.68 0.68 0.0 0 1 131.28 411.47
  L 131.35 365.28
  A 1.19 1.19 0.0 0 0 130.16 364.08
  L 88.66 364.11
  A 0.38 0.38 0.0 0 0 88.28 364.49
  L 88.27 394.98
  A 0.71 0.70 89.6 0 0 88.98 395.69
  L 106.70 395.61
  A 77.60 5.50 44.0 0 0 107.24 395.05
  Z"
/>
<path fill="#894f3d" d="
  M 414.76 407.00
  L 414.79 376.53
  A 0.51 0.51 0.0 0 0 414.28 376.02
  L 395.02 376.01
  A 0.71 0.71 0.0 0 0 394.31 376.72
  L 394.39 386.48
  A 186.47 14.42 42.0 0 1 393.02 387.99
  L 391.52 388.12
  A 203.32 13.83 -48.1 0 1 390.01 386.76
  L 389.87 374.68
  A 442.27 31.20 44.5 0 1 392.98 371.52
  L 417.27 371.50
  A 2.02 2.01 90.0 0 1 419.28 373.52
  L 419.33 410.30
  A 229.94 16.40 45.0 0 1 417.70 411.95
  L 368.61 412.12
  A 0.77 0.77 0.0 0 1 367.84 411.40
  A 57.99 28.70 -79.9 0 1 367.50 403.75
  A 272.31 41.22 -88.4 0 1 367.70 365.67
  A 1.64 1.64 0.0 0 0 366.06 364.00
  L 324.94 364.13
  A 0.43 0.43 0.0 0 0 324.51 364.56
  L 324.50 394.82
  A 0.82 0.81 0.0 0 0 325.32 395.63
  L 343.02 395.65
  A 0.44 0.44 0.0 0 0 343.46 395.21
  L 343.48 386.75
  A 178.45 12.65 44.8 0 1 344.75 385.49
  L 346.80 385.51
  A 181.98 13.00 -44.6 0 1 348.10 386.81
  L 348.18 398.60
  A 1.77 1.77 0.0 0 1 346.40 400.39
  L 320.46 400.20
  A 0.50 0.49 0.6 0 1 319.97 399.71
  L 319.91 361.68
  A 2.17 2.17 0.0 0 1 322.07 359.51
  L 370.59 359.43
  A 234.17 16.60 -45.0 0 1 372.25 361.09
  L 372.25 406.74
  A 102.99 7.40 -44.2 0 0 372.99 407.48
  L 414.25 407.50
  A 71.24 5.05 44.4 0 0 414.76 407.00
  Z"
/>
<path fill="#894f3d" d="
  M 946.12 406.93
  L 946.02 376.65
  A 0.63 0.63 0.0 0 0 945.39 376.02
  L 926.30 376.01
  A 0.69 0.69 0.0 0 0 925.61 376.70
  L 925.59 386.47
  A 1.54 1.53 86.1 0 1 924.28 387.98
  L 922.75 388.20
  A 224.11 14.78 -49.1 0 1 921.06 386.75
  L 921.01 374.51
  A 421.79 29.85 45.0 0 1 923.99 371.51
  L 948.55 371.48
  A 2.06 2.06 0.0 0 1 950.61 373.54
  L 950.54 411.64
  A 59.96 4.25 44.3 0 1 950.11 412.06
  L 898.82 412.20
  A 0.64 0.64 0.0 0 1 898.18 411.56
  L 898.08 364.75
  A 0.58 0.57 -0.0 0 0 897.50 364.18
  L 855.81 364.10
  A 0.60 0.59 -89.5 0 0 855.22 364.69
  L 855.02 394.77
  A 0.99 0.99 0.0 0 0 856.02 395.76
  L 873.40 395.61
  A 0.75 0.74 -1.1 0 0 874.14 394.85
  L 873.96 386.27
  A 0.77 0.77 0.0 0 1 874.73 385.48
  L 877.99 385.48
  A 107.21 7.60 -45.0 0 1 878.75 386.24
  L 878.69 398.95
  A 1.37 1.37 0.0 0 1 877.31 400.31
  L 851.16 400.22
  A 0.56 0.56 0.0 0 1 850.60 399.66
  L 850.49 361.78
  A 2.24 2.24 0.0 0 1 852.73 359.53
  L 901.34 359.37
  A 1.71 1.70 -90.0 0 1 903.05 361.09
  L 902.75 406.73
  A 0.73 0.72 0.4 0 0 903.48 407.46
  L 945.57 407.47
  A 0.55 0.54 -0.0 0 0 946.12 406.93
  Z"
/>
<path fill="#894f3d" d="
  M 48.48 395.05
  L 48.42 386.53
  A 148.12 10.45 45.5 0 1 49.47 385.48
  L 52.03 385.49
  A 162.23 11.70 -45.0 0 1 53.20 386.66
  L 53.25 398.15
  A 303.30 21.40 45.0 0 1 51.10 400.30
  L 25.74 400.29
  A 0.80 0.80 0.0 0 1 24.95 399.49
  L 24.98 361.51
  A 2.01 2.01 0.0 0 1 26.99 359.50
  L 75.25 359.43
  A 291.30 20.60 -44.9 0 1 77.31 361.50
  L 77.13 406.66
  A 0.78 0.78 0.0 0 0 77.91 407.44
  L 118.56 407.35
  A 93.10 6.60 45.0 0 0 119.22 406.69
  L 119.24 377.25
  A 174.92 12.40 -45.0 0 0 118.00 376.01
  L 99.49 376.03
  A 0.73 0.73 0.0 0 0 98.76 376.76
  L 98.76 386.45
  A 192.85 15.47 41.9 0 1 97.30 388.08
  L 95.86 388.25
  A 212.03 14.11 -48.4 0 1 94.28 386.85
  L 94.24 374.01
  A 353.37 25.05 44.7 0 1 96.74 371.50
  L 121.59 371.48
  A 2.12 2.11 0.0 0 1 123.71 373.59
  L 123.76 410.77
  A 180.57 12.80 45.0 0 1 122.48 412.05
  L 73.51 412.12
  A 201.79 13.72 -42.6 0 1 72.14 410.64
  A 38.80 18.91 86.5 0 0 72.37 405.25
  A 287.08 13.87 -89.6 0 0 72.51 364.74
  A 0.49 0.49 0.0 0 0 72.02 364.25
  L 30.48 364.03
  A 139.66 9.90 45.0 0 0 29.49 365.02
  L 29.50 395.07
  A 0.57 0.57 0.0 0 0 30.07 395.64
  L 47.95 395.59
  A 0.54 0.53 -90.0 0 0 48.48 395.05
  Z"
/>
<path fill="#894f3d" d="
  M 147.00 364.71
  L 147.01 394.67
  A 0.91 0.90 0.0 0 0 147.92 395.57
  L 165.09 395.59
  A 0.92 0.92 0.0 0 0 166.01 394.66
  L 165.96 386.40
  A 126.97 9.00 44.4 0 1 166.85 385.49
  L 169.67 385.44
  A 139.01 9.71 -45.3 0 1 170.66 386.42
  L 170.51 398.85
  A 223.60 15.95 45.5 0 1 168.90 400.43
  L 143.58 400.32
  A 138.25 9.90 -44.4 0 1 142.59 399.33
  L 142.41 361.53
  A 2.06 2.06 0.0 0 1 144.48 359.46
  L 193.68 359.46
  A 1.08 1.08 0.0 0 1 194.76 360.55
  L 194.52 406.82
  A 113.59 7.95 -45.4 0 0 195.32 407.63
  L 237.27 407.41
  A 0.68 0.68 0.0 0 0 237.95 406.73
  L 237.95 376.86
  A 0.86 0.86 0.0 0 0 237.10 376.00
  L 217.97 375.91
  A 0.61 0.61 0.0 0 0 217.35 376.53
  L 217.42 386.39
  A 229.32 17.06 43.4 0 1 215.77 388.15
  L 214.56 388.22
  A 237.60 15.92 -45.5 0 1 212.87 386.56
  L 213.38 374.21
  A 354.12 26.20 45.9 0 1 216.05 371.64
  L 240.27 371.55
  A 2.23 2.22 -0.1 0 1 242.51 373.77
  L 242.49 410.75
  A 1.39 1.39 0.0 0 1 241.10 412.14
  A 222.98 6.94 -0.2 0 0 209.78 412.13
  L 205.33 412.07
  L 190.88 412.31
  A 0.99 0.98 0.5 0 1 189.81 411.23
  L 190.17 398.66
  L 190.20 390.80
  L 190.13 378.30
  L 190.08 365.20
  A 151.06 10.51 -44.0 0 0 189.03 364.11
  L 147.54 364.17
  A 76.18 5.40 45.0 0 0 147.00 364.71
  Z"
/>
<path fill="#894f3d" d="
  M 225.22 395.01
  L 225.44 386.45
  A 115.68 8.40 45.7 0 1 226.29 385.62
  L 229.12 385.62
  A 0.88 0.88 0.0 0 1 230.00 386.50
  L 229.99 398.66
  A 1.64 1.64 0.0 0 1 228.34 400.30
  L 202.44 400.24
  A 0.60 0.60 0.0 0 1 201.85 399.61
  A 83.43 26.06 89.8 0 0 202.21 387.88
  L 202.00 376.84
  L 201.80 361.56
  A 1.96 1.96 0.0 0 1 203.75 359.65
  L 252.19 359.53
  A 1.91 1.91 0.0 0 1 254.11 361.44
  L 254.05 406.74
  A 0.69 0.69 0.0 0 0 254.74 407.43
  L 296.50 407.43
  A 0.69 0.68 -89.6 0 0 297.18 406.75
  L 297.34 376.67
  A 0.67 0.66 0.4 0 0 296.67 376.00
  L 277.77 376.02
  A 122.73 8.65 44.3 0 0 276.90 376.89
  L 276.97 386.97
  A 129.90 9.81 42.5 0 1 276.03 387.99
  L 273.47 388.17
  A 0.97 0.96 -2.5 0 1 272.43 387.22
  L 272.31 374.12
  A 2.58 2.58 0.0 0 1 274.89 371.52
  L 299.29 371.49
  A 359.72 25.50 -45.0 0 1 301.84 374.04
  L 301.95 409.76
  A 312.46 22.15 44.6 0 1 299.74 411.98
  L 250.19 412.14
  A 197.96 13.11 -41.7 0 1 248.88 410.67
  A 50.92 29.14 65.1 0 0 249.26 404.74
  A 283.47 11.00 -89.7 0 0 249.47 364.66
  A 0.51 0.51 0.0 0 0 248.96 364.15
  L 207.55 363.91
  A 148.13 10.50 45.5 0 0 206.49 364.95
  L 206.09 393.75
  A 2.12 2.12 0.0 0 0 208.26 395.90
  L 224.74 395.49
  A 64.89 4.80 45.0 0 0 225.22 395.01
  Z"
/>
<path fill="#894f3d" d="
  M 284.74 395.04
  L 284.71 386.27
  A 109.36 7.65 45.4 0 1 285.48 385.49
  L 288.72 385.50
  A 91.69 6.50 -45.0 0 1 289.37 386.15
  A 88.38 10.53 88.0 0 0 289.42 398.25
  A 300.22 20.69 46.1 0 1 287.26 400.34
  L 269.72 400.25
  L 262.00 400.34
  A 0.80 0.80 0.0 0 1 261.20 399.54
  L 261.18 361.02
  A 1.54 1.54 0.0 0 1 262.72 359.48
  L 311.74 359.49
  A 1.76 1.75 -0.0 0 1 313.50 361.24
  L 313.46 406.72
  A 0.76 0.75 -0.0 0 0 314.22 407.47
  L 355.16 407.40
  A 0.24 0.24 0.0 0 0 355.40 407.17
  L 355.46 377.23
  A 1.23 1.22 0.2 0 0 354.23 376.00
  L 335.60 376.02
  A 0.63 0.63 0.0 0 0 334.97 376.65
  L 335.01 386.74
  A 174.23 12.65 44.3 0 1 333.76 388.02
  L 331.71 388.09
  A 162.27 11.40 -46.0 0 1 330.54 386.96
  L 330.49 374.26
  A 388.64 27.45 44.7 0 1 333.24 371.50
  L 357.64 371.50
  A 337.15 23.90 -45.0 0 1 360.03 373.89
  L 359.96 411.10
  A 1.02 1.02 0.0 0 1 358.94 412.12
  L 309.61 412.04
  A 131.20 9.25 -44.4 0 1 308.68 411.11
  L 308.81 364.73
  A 0.65 0.65 0.0 0 0 308.16 364.08
  L 266.58 364.08
  A 118.50 8.40 45.0 0 0 265.74 364.92
  L 265.71 395.01
  A 0.55 0.54 -0.0 0 0 266.26 395.55
  L 284.21 395.56
  A 74.06 5.25 44.4 0 0 284.74 395.04
  Z"
/>
<path fill="#894f3d" d="
  M 402.28 395.05
  L 402.21 386.51
  A 146.01 10.30 44.7 0 1 403.24 385.47
  L 405.79 385.49
  A 147.42 10.40 -44.7 0 1 406.83 386.54
  L 406.74 399.21
  A 0.95 0.95 0.0 0 1 405.79 400.16
  L 379.40 400.27
  A 0.62 0.62 0.0 0 1 378.78 399.65
  L 378.73 362.14
  A 371.01 26.30 45.0 0 1 381.36 359.51
  L 429.19 359.45
  A 1.75 1.74 0.0 0 1 430.94 361.19
  L 430.98 406.97
  A 0.50 0.49 89.4 0 0 431.47 407.46
  L 473.48 407.48
  A 100.16 7.10 45.0 0 0 474.19 406.77
  L 474.23 376.74
  A 0.75 0.74 89.6 0 0 473.48 375.99
  L 454.75 376.02
  A 1.00 1.00 0.0 0 0 453.75 377.02
  L 453.74 386.51
  A 203.31 15.61 42.6 0 1 452.24 388.13
  L 450.71 388.26
  A 1.34 1.33 -2.8 0 1 449.27 386.96
  L 449.07 373.61
  A 2.08 2.07 89.6 0 1 451.14 371.50
  L 476.58 371.50
  A 2.15 2.15 0.0 0 1 478.73 373.65
  L 478.75 410.46
  A 221.48 15.80 44.6 0 1 477.17 412.04
  L 427.10 412.19
  A 0.83 0.82 0.3 0 1 426.27 411.36
  L 426.45 364.79
  A 0.66 0.66 0.0 0 0 425.79 364.13
  L 383.72 364.05
  A 0.49 0.49 0.0 0 0 383.23 364.54
  L 383.20 395.04
  A 0.60 0.60 0.0 0 0 383.79 395.64
  L 401.58 395.76
  A 0.70 0.70 0.0 0 0 402.28 395.05
  Z"
/>
<path fill="#894f3d" d="
  M 443.28 395.59
  L 460.96 395.66
  A 0.63 0.63 0.0 0 0 461.59 395.03
  L 461.56 386.46
  A 136.85 9.65 45.0 0 1 462.54 385.50
  L 465.26 385.53
  A 136.13 9.75 -44.7 0 1 466.23 386.51
  L 466.27 398.66
  A 1.68 1.67 -89.8 0 1 464.59 400.34
  L 438.81 400.31
  A 0.81 0.81 0.0 0 1 438.00 399.49
  L 438.07 361.70
  A 311.76 22.20 45.0 0 1 440.30 359.49
  L 488.41 359.50
  A 270.14 19.15 -44.8 0 1 490.33 361.41
  L 490.32 406.88
  A 0.60 0.60 0.0 0 0 490.92 407.48
  L 532.45 407.48
  A 0.43 0.42 -90.0 0 0 532.87 407.05
  L 532.90 376.97
  A 0.93 0.93 0.0 0 0 531.97 376.04
  L 512.96 376.06
  A 0.48 0.48 0.0 0 0 512.48 376.54
  L 512.50 386.98
  A 135.54 10.21 42.6 0 1 511.52 388.04
  L 509.28 388.19
  A 1.17 1.17 0.0 0 1 508.03 387.02
  L 507.98 374.02
  A 2.51 2.51 0.0 0 1 510.48 371.50
  L 535.50 371.49
  A 2.02 2.01 0.0 0 1 537.52 373.50
  L 537.48 410.38
  A 225.71 16.10 44.6 0 1 535.87 411.99
  L 485.84 412.17
  A 0.34 0.34 0.0 0 1 485.50 411.83
  L 485.81 364.71
  A 0.63 0.63 0.0 0 0 485.18 364.08
  L 443.26 364.20
  A 0.54 0.54 0.0 0 0 442.72 364.74
  L 442.71 395.03
  A 0.57 0.56 -0.0 0 0 443.28 395.59
  Z"
/>
<path fill="#894f3d" d="
  M 590.97 406.99
  L 591.09 376.85
  A 121.34 8.50 -45.0 0 0 590.23 375.99
  L 571.57 376.01
  A 0.92 0.92 0.0 0 0 570.65 376.93
  L 570.60 386.47
  A 170.51 14.40 40.5 0 1 569.28 388.02
  L 567.77 388.27
  A 198.06 13.02 -50.2 0 1 566.26 387.01
  L 566.04 374.70
  A 445.12 31.31 44.6 0 1 569.17 371.52
  L 593.77 371.52
  A 1.75 1.75 0.0 0 1 595.52 373.27
  L 595.61 411.38
  A 0.73 0.73 0.0 0 1 594.88 412.11
  L 545.11 412.10
  A 103.69 7.35 -45.4 0 1 544.38 411.36
  L 544.45 364.98
  A 0.85 0.85 0.0 0 0 543.60 364.13
  L 501.79 364.15
  A 0.44 0.43 90.0 0 0 501.36 364.59
  L 501.32 394.96
  A 0.64 0.64 0.0 0 0 501.96 395.60
  L 519.69 395.65
  A 0.71 0.70 -0.4 0 0 520.40 394.94
  L 520.28 386.24
  A 104.41 7.35 45.0 0 1 521.01 385.49
  L 524.25 385.49
  A 105.81 7.60 -44.2 0 1 525.01 386.25
  L 524.99 398.92
  A 1.41 1.40 -89.8 0 1 523.58 400.33
  L 497.55 400.25
  A 0.71 0.70 0.4 0 1 496.85 399.55
  L 496.79 361.98
  A 349.14 24.85 44.9 0 1 499.27 359.49
  L 546.95 359.46
  A 315.99 22.35 -44.7 0 1 549.19 361.70
  L 549.00 406.96
  A 0.46 0.46 0.0 0 0 549.46 407.42
  L 590.51 407.45
  A 64.89 4.60 45.0 0 0 590.97 406.99
  Z"
/>
<path fill="#894f3d" d="
  M 650.49 407.01
  L 650.48 376.49
  A 0.49 0.49 0.0 0 0 649.99 376.00
  L 630.89 376.03
  A 0.92 0.92 0.0 0 0 629.97 376.96
  L 630.03 386.55
  A 181.38 13.96 43.0 0 1 628.70 388.01
  L 626.83 388.16
  A 177.80 12.07 -47.3 0 1 625.52 386.96
  L 625.49 374.27
  A 387.23 27.40 44.9 0 1 628.23 371.52
  L 652.78 371.49
  A 2.20 2.20 0.0 0 1 654.98 373.69
  L 654.93 410.28
  A 238.40 17.10 45.0 0 1 653.22 411.99
  L 604.10 412.14
  A 77.14 6.17 -49.7 0 1 603.44 411.57
  A 135.83 9.76 70.2 0 1 603.03 406.50
  A 296.91 46.65 89.1 0 0 603.20 364.86
  A 0.73 0.73 0.0 0 0 602.47 364.14
  L 560.75 364.13
  A 0.60 0.60 0.0 0 0 560.15 364.73
  L 560.12 394.76
  A 0.89 0.88 89.7 0 0 561.01 395.65
  L 578.51 395.59
  A 0.59 0.59 0.0 0 0 579.10 394.99
  L 579.02 386.51
  A 137.55 9.70 44.7 0 1 579.99 385.53
  L 582.83 385.51
  A 116.39 8.20 -45.3 0 1 583.66 386.33
  L 583.72 398.91
  A 1.39 1.38 89.8 0 1 582.34 400.31
  L 556.59 400.30
  A 135.42 9.60 -45.0 0 1 555.63 399.34
  L 555.51 361.73
  A 2.26 2.26 0.0 0 1 557.77 359.47
  L 605.87 359.48
  A 268.03 19.00 -45.0 0 1 607.77 361.38
  L 607.81 406.72
  A 0.67 0.67 0.0 0 0 608.47 407.39
  L 649.99 407.52
  A 0.51 0.50 -90.0 0 0 650.49 407.01
  Z"
/>
<path fill="#894f3d" d="
  M 689.38 376.56
  L 689.43 386.79
  A 170.02 12.35 43.8 0 1 688.22 388.05
  L 686.16 388.13
  A 175.78 12.21 -46.1 0 1 684.89 386.91
  L 684.89 374.31
  A 394.99 28.00 45.0 0 1 687.69 371.51
  L 712.30 371.50
  A 2.06 2.06 0.0 0 1 714.36 373.55
  L 714.42 410.30
  A 243.34 17.25 45.2 0 1 712.70 412.03
  L 662.67 412.15
  A 0.79 0.79 0.0 0 1 661.88 411.36
  L 662.00 364.87
  A 0.73 0.73 0.0 0 0 661.27 364.14
  L 619.49 364.12
  A 0.64 0.64 0.0 0 0 618.85 364.76
  L 618.85 394.75
  A 0.90 0.90 0.0 0 0 619.75 395.65
  L 636.99 395.64
  A 121.35 8.50 44.3 0 0 637.84 394.77
  L 637.73 386.26
  A 107.24 7.50 45.0 0 1 638.49 385.50
  L 641.77 385.52
  A 0.75 0.75 0.0 0 1 642.52 386.27
  L 642.43 398.66
  A 229.24 16.35 45.2 0 1 640.79 400.29
  L 615.01 400.39
  A 0.64 0.63 0.0 0 1 614.37 399.76
  L 614.35 362.20
  A 380.88 27.00 45.0 0 1 617.05 359.50
  L 664.67 359.48
  A 273.67 19.40 -45.0 0 1 666.61 361.42
  L 666.51 406.87
  A 0.62 0.62 0.0 0 0 667.13 407.49
  L 709.48 407.48
  A 0.33 0.33 0.0 0 0 709.81 407.15
  L 709.79 376.64
  A 91.69 6.50 -45.0 0 0 709.14 375.99
  L 689.94 376.01
  A 78.30 5.55 44.5 0 0 689.38 376.56
  Z"
/>
<path fill="#894f3d" d="
  M 768.42 407.49
  A 0.67 0.66 0.0 0 0 769.09 406.83
  L 769.17 376.73
  A 0.70 0.70 0.0 0 0 768.48 376.02
  L 749.24 376.01
  A 70.53 5.00 45.0 0 0 748.74 376.51
  L 748.74 386.97
  A 130.58 10.06 42.8 0 1 747.78 388.02
  L 745.29 388.23
  A 139.60 9.46 -47.4 0 1 744.26 387.29
  L 744.26 374.00
  A 2.49 2.49 0.0 0 1 746.75 371.51
  L 771.42 371.51
  A 338.57 23.90 -44.8 0 1 773.81 373.92
  L 773.54 410.97
  A 1.01 1.01 0.0 0 1 772.54 411.97
  L 722.13 412.10
  A 200.39 13.38 -42.1 0 1 720.79 410.62
  A 79.38 14.25 75.7 0 0 721.09 404.75
  A 284.23 13.92 -89.6 0 0 721.31 364.57
  A 0.56 0.56 0.0 0 0 720.75 364.01
  L 678.70 364.11
  A 0.45 0.45 0.0 0 0 678.25 364.56
  L 678.25 395.07
  A 0.58 0.57 -90.0 0 0 678.82 395.65
  L 696.71 395.58
  A 76.18 5.40 45.0 0 0 697.25 395.04
  L 697.21 386.26
  A 109.33 7.70 45.4 0 1 697.99 385.49
  L 701.04 385.51
  A 107.92 7.75 -44.6 0 1 701.81 386.29
  L 701.82 398.62
  A 238.40 16.90 45.0 0 1 700.13 400.31
  L 674.26 400.25
  A 69.12 4.90 -45.0 0 1 673.77 399.76
  L 673.70 361.53
  A 2.03 2.02 -90.0 0 1 675.72 359.50
  L 724.37 359.50
  A 1.62 1.61 0.2 0 1 725.99 361.12
  L 725.91 406.93
  A 0.53 0.53 0.0 0 0 726.44 407.46
  L 768.42 407.49
  Z"
/>
<path fill="#894f3d" d="
  M 738.21 364.15
  A 88.87 6.30 45.0 0 0 737.58 364.78
  L 737.57 394.95
  A 0.64 0.64 0.0 0 0 738.20 395.59
  L 755.98 395.64
  A 0.62 0.62 0.0 0 0 756.60 395.02
  L 756.54 386.10
  A 0.61 0.61 0.0 0 1 757.15 385.49
  L 760.50 385.50
  A 105.80 7.50 -45.0 0 1 761.25 386.25
  L 761.23 398.89
  A 1.40 1.40 0.0 0 1 759.83 400.29
  L 733.67 400.24
  A 0.57 0.56 90.0 0 1 733.11 399.67
  L 733.04 361.73
  A 2.24 2.23 -90.0 0 1 735.27 359.49
  L 783.49 359.50
  A 275.11 19.35 -44.4 0 1 785.43 361.46
  A 144.90 15.00 89.9 0 0 785.28 381.87
  L 785.16 387.87
  L 785.36 406.88
  A 61.40 5.65 -43.0 0 0 785.91 407.46
  A 92.40 5.26 18.7 0 0 789.00 407.74
  A 267.34 7.83 -0.6 0 1 826.73 407.44
  A 0.58 0.58 0.0 0 0 827.31 406.85
  L 827.50 384.97
  A 77.86 60.73 1.9 0 0 827.14 376.38
  A 0.52 0.52 0.0 0 0 826.64 375.93
  L 807.74 375.81
  A 0.73 0.72 0.8 0 0 807.01 376.51
  L 806.64 386.78
  A 1.17 1.17 0.0 0 1 805.57 387.90
  L 803.50 388.08
  A 126.30 8.47 -46.7 0 1 802.58 387.22
  A 104.41 39.36 71.5 0 0 802.28 375.25
  A 529.41 34.72 46.0 0 1 805.98 371.52
  L 814.31 371.65
  L 821.00 371.69
  A 79.31 46.65 35.8 0 0 829.64 371.51
  A 1.84 1.83 -2.9 0 1 831.65 373.32
  L 831.92 410.82
  A 174.92 12.40 45.0 0 1 830.68 412.06
  L 781.49 412.07
  A 116.39 8.20 -44.7 0 1 780.67 411.24
  L 780.69 364.88
  A 113.56 8.05 -44.6 0 0 779.88 364.08
  L 738.21 364.15
  Z"
/>
<path fill="#894f3d" d="
  M 815.30 395.19
  L 815.20 386.48
  A 1.03 1.02 -89.0 0 1 816.27 385.44
  L 818.60 385.55
  A 203.18 15.11 -43.8 0 1 820.07 387.10
  L 820.07 398.28
  A 294.84 20.80 45.3 0 1 817.97 400.36
  L 792.73 400.12
  A 0.63 0.63 0.0 0 1 792.10 399.49
  L 791.77 361.78
  A 2.20 2.19 -0.3 0 1 793.97 359.57
  L 842.43 359.62
  A 1.81 1.81 0.0 0 1 844.24 361.43
  L 844.17 406.45
  A 145.30 10.30 -45.0 0 0 845.20 407.48
  L 886.06 407.47
  A 0.54 0.53 0.0 0 0 886.60 406.94
  L 886.70 376.73
  A 0.73 0.72 90.0 0 0 885.98 376.00
  L 866.73 376.01
  A 0.51 0.51 0.0 0 0 866.23 376.52
  L 866.27 386.75
  A 145.47 11.31 42.2 0 1 865.19 387.93
  L 863.02 388.12
  A 1.10 1.10 0.0 0 1 861.82 387.02
  L 861.78 373.99
  A 2.48 2.48 0.0 0 1 864.26 371.50
  L 889.02 371.52
  A 2.25 2.24 0.1 0 1 891.27 373.77
  L 891.22 410.02
  A 279.32 19.90 44.7 0 1 889.23 412.01
  L 840.59 412.08
  A 1.24 1.23 -0.0 0 1 839.34 410.84
  L 839.50 365.24
  A 1.26 1.26 0.0 0 0 838.24 363.97
  L 797.29 364.08
  A 122.73 8.90 45.0 0 0 796.40 364.97
  L 796.20 394.49
  A 1.28 1.28 0.0 0 0 797.49 395.77
  L 814.81 395.68
  A 0.49 0.49 0.0 0 0 815.30 395.19
  Z"
/>
<path fill="#894f3d" d="
  M 914.51 394.98
  A 0.72 0.71 0.0 0 0 915.23 395.69
  L 932.80 395.64
  A 97.34 6.90 45.0 0 0 933.49 394.95
  L 933.48 386.20
  A 113.64 7.91 46.0 0 1 934.30 385.41
  L 937.30 385.50
  A 106.53 7.85 -43.9 0 1 938.07 386.30
  L 938.00 398.88
  A 1.38 1.38 0.0 0 1 936.62 400.26
  L 910.53 400.29
  A 0.51 0.51 0.0 0 1 910.02 399.78
  L 909.75 362.24
  A 390.05 27.60 44.9 0 1 912.51 359.47
  L 960.00 359.50
  A 2.25 2.25 0.0 0 1 962.25 361.75
  L 962.22 406.69
  A 0.72 0.72 0.0 0 0 962.94 407.41
  L 1004.41 407.50
  A 1.15 1.15 0.0 0 0 1005.56 406.34
  L 1005.32 377.04
  A 1.04 1.03 89.7 0 0 1004.29 376.01
  L 985.72 376.05
  A 0.73 0.73 0.0 0 0 984.99 376.77
  L 984.94 386.54
  A 199.08 15.31 42.6 0 1 983.47 388.13
  L 982.06 388.25
  A 212.35 14.47 -47.1 0 1 980.50 386.81
  L 980.52 374.25
  A 384.41 27.35 44.9 0 1 983.25 371.51
  L 1007.77 371.47
  A 2.30 2.29 0.1 0 1 1010.07 373.77
  L 1009.86 411.22
  A 0.84 0.83 -0.3 0 1 1009.03 412.05
  L 957.73 412.15
  A 0.73 0.73 0.0 0 1 957.00 411.36
  L 957.74 395.78
  L 957.62 374.11
  L 957.49 364.59
  A 0.47 0.47 0.0 0 0 957.02 364.12
  L 915.23 364.09
  A 0.69 0.68 -0.0 0 0 914.54 364.77
  L 914.51 394.98
  Z"
/>
<path fill="#894f3d" d="
  M 1063.17 407.47
  A 55.74 3.90 45.7 0 0 1063.57 407.08
  L 1063.71 376.86
  A 0.86 0.85 -90.0 0 0 1062.86 376.00
  L 1044.06 376.03
  A 0.90 0.90 0.0 0 0 1043.16 376.94
  L 1043.23 386.43
  A 191.44 15.08 41.8 0 1 1041.82 388.03
  L 1040.14 388.22
  A 200.46 13.38 -48.3 0 1 1038.65 386.89
  L 1038.68 373.91
  A 2.42 2.41 -89.9 0 1 1041.09 371.50
  L 1065.74 371.47
  A 320.22 22.70 -45.0 0 1 1068.01 373.74
  L 1068.07 410.11
  A 274.38 19.40 44.9 0 1 1066.13 412.06
  L 1017.75 412.14
  A 1.20 1.20 0.0 0 1 1016.55 410.87
  L 1017.04 395.52
  L 1016.97 374.29
  L 1016.89 365.50
  A 41.35 2.71 -72.0 0 0 1016.76 364.67
  A 56.67 6.16 -76.0 0 0 1016.00 364.12
  L 974.69 364.10
  A 0.95 0.95 0.0 0 0 973.74 365.06
  L 973.99 394.68
  A 0.94 0.94 0.0 0 0 974.93 395.62
  L 992.00 395.54
  A 1.00 1.00 0.0 0 0 993.00 394.50
  L 992.74 386.60
  A 167.28 11.66 44.3 0 1 993.90 385.39
  L 996.22 385.40
  A 184.80 13.10 -44.6 0 1 997.52 386.72
  L 997.37 398.49
  A 251.10 18.00 45.3 0 1 995.56 400.28
  L 970.06 400.31
  A 0.76 0.75 0.0 0 1 969.30 399.56
  L 969.36 362.04
  A 366.07 25.95 44.9 0 1 971.96 359.45
  L 1019.94 359.49
  A 1.69 1.69 0.0 0 1 1021.63 361.19
  L 1021.49 406.94
  A 0.47 0.46 -0.0 0 0 1021.96 407.40
  L 1063.17 407.47
  Z"
/>
<path fill="#894f3d" d="
  M 1122.97 407.01
  L 1122.90 376.45
  A 0.45 0.45 0.0 0 0 1122.45 376.00
  L 1102.88 376.06
  A 0.38 0.37 0.0 0 0 1102.50 376.43
  L 1102.52 386.38
  A 185.23 15.14 41.1 0 1 1101.12 388.00
  L 1099.60 388.22
  A 208.99 13.80 -49.3 0 1 1098.03 386.86
  L 1098.02 374.24
  A 387.23 27.45 45.1 0 1 1100.76 371.49
  L 1125.25 371.49
  A 2.26 2.26 0.0 0 1 1127.51 373.75
  L 1127.43 410.18
  A 261.68 18.55 44.8 0 1 1125.57 412.03
  L 1077.31 412.09
  A 215.83 15.30 -45.0 0 1 1075.78 410.56
  L 1075.72 365.02
  A 0.95 0.95 0.0 0 0 1074.77 364.07
  L 1033.30 364.12
  A 0.63 0.63 0.0 0 0 1032.67 364.75
  L 1032.69 394.75
  A 0.86 0.86 0.0 0 0 1033.55 395.61
  L 1050.84 395.66
  A 0.86 0.86 0.0 0 0 1051.70 394.79
  L 1051.55 386.43
  A 143.33 9.91 45.3 0 1 1052.57 385.42
  L 1054.91 385.47
  A 160.11 11.75 -44.8 0 1 1056.07 386.66
  L 1056.17 398.79
  A 1.46 1.46 0.0 0 1 1054.71 400.26
  L 1028.74 400.38
  A 0.65 0.64 -0.0 0 1 1028.09 399.74
  L 1027.97 362.26
  A 390.76 27.65 44.8 0 1 1030.74 359.49
  L 1078.73 359.49
  A 1.63 1.63 0.0 0 1 1080.36 361.13
  L 1080.27 406.87
  A 0.61 0.61 0.0 0 0 1080.88 407.48
  L 1122.49 407.49
  A 67.71 4.80 45.0 0 0 1122.97 407.01
  Z"
/>
</svg>
